<svg width="560" height="94" viewBox="0 0 560 94" fill="none" xmlns="http://www.w3.org/2000/svg">
<path d="M0.500001 94V-4.29153e-06H25V7.99999H9.5V86H25V94H0.500001ZM66.7609 84C61.2943 84 56.8609 82.1667 53.4609 78.5C50.1276 74.8333 48.4609 69.8667 48.4609 63.6V47.5C48.4609 41.1667 50.1276 36.1667 53.4609 32.5C56.7943 28.8333 61.2276 27 66.7609 27C71.2943 27 74.9276 28.2333 77.6609 30.7C80.3943 33.1667 81.7609 36.4667 81.7609 40.6L79.9609 38.5H81.9609L81.7609 26V10H90.7609V83H81.7609V72.5H79.9609L81.7609 70.4C81.7609 74.6 80.3943 77.9333 77.6609 80.4C74.9276 82.8 71.2943 84 66.7609 84ZM69.7609 76.2C73.4943 76.2 76.4276 75.0333 78.5609 72.7C80.6943 70.3667 81.7609 67.1333 81.7609 63V48C81.7609 43.8667 80.6943 40.6333 78.5609 38.3C76.4276 35.9667 73.4943 34.8 69.7609 34.8C65.9609 34.8 62.9609 35.9333 60.7609 38.2C58.5609 40.4667 57.4609 43.7333 57.4609 48V63C57.4609 67.2667 58.5609 70.5333 60.7609 72.8C62.9609 75.0667 65.9609 76.2 69.7609 76.2ZM129.922 84C125.589 84 121.789 83.1333 118.522 81.4C115.322 79.6667 112.822 77.2333 111.022 74.1C109.289 70.9 108.422 67.2 108.422 63V48C108.422 43.7333 109.289 40.0333 111.022 36.9C112.822 33.7667 115.322 31.3333 118.522 29.6C121.789 27.8667 125.589 27 129.922 27C134.255 27 138.022 27.8667 141.222 29.6C144.489 31.3333 146.989 33.7667 148.722 36.9C150.522 40.0333 151.422 43.7333 151.422 48V57.7H117.222V63C117.222 67.3333 118.322 70.6667 120.522 73C122.722 75.2667 125.855 76.4 129.922 76.4C133.389 76.4 136.189 75.8 138.322 74.6C140.455 73.3333 141.755 71.4667 142.222 69H151.222C150.622 73.6 148.355 77.2667 144.422 80C140.555 82.6667 135.722 84 129.922 84ZM142.622 51.7V48C142.622 43.6667 141.522 40.3333 139.322 38C137.189 35.6667 134.055 34.5 129.922 34.5C125.855 34.5 122.722 35.6667 120.522 38C118.322 40.3333 117.222 43.6667 117.222 48V50.9H143.322L142.622 51.7ZM183.783 83L165.383 28H174.583L186.783 65C187.516 67.2 188.183 69.3333 188.783 71.4C189.383 73.4 189.816 74.9667 190.083 76.1C190.416 74.9667 190.883 73.4 191.483 71.4C192.083 69.3333 192.716 67.2 193.383 65L205.283 28H214.383L195.983 83H183.783ZM226.444 83V28H234.344V34.6H236.144L234.744 37C234.744 33.9333 235.544 31.5 237.144 29.7C238.81 27.9 241.044 27 243.844 27C246.91 27 249.277 28.1333 250.944 30.4C252.61 32.6667 253.444 35.8667 253.444 40L250.744 34.6H254.944L253.044 37C253.044 33.9333 253.877 31.5 255.544 29.7C257.277 27.9 259.544 27 262.344 27C265.81 27 268.477 28.3 270.344 30.9C272.277 33.5 273.244 36.9333 273.244 41.2V83H264.944V41.1C264.944 38.8333 264.444 37.0667 263.444 35.8C262.51 34.5333 261.11 33.9 259.244 33.9C257.444 33.9 256.01 34.5333 254.944 35.8C253.944 37 253.444 38.7333 253.444 41V83H246.244V41.1C246.244 38.7667 245.71 37 244.644 35.8C243.644 34.5333 242.21 33.9 240.344 33.9C238.477 33.9 237.077 34.5333 236.144 35.8C235.21 37 234.744 38.7333 234.744 41V83H226.444ZM309.805 83.8C305.405 83.8 301.605 82.9667 298.405 81.3C295.205 79.6333 292.705 77.2333 290.905 74.1C289.171 70.9 288.305 67.1333 288.305 62.8V48.2C288.305 43.8 289.171 40.0333 290.905 36.9C292.705 33.7667 295.205 31.3667 298.405 29.7C301.605 28.0333 305.405 27.2 309.805 27.2C314.205 27.2 318.005 28.0333 321.205 29.7C324.405 31.3667 326.871 33.7667 328.605 36.9C330.405 40.0333 331.305 43.7667 331.305 48.1V62.8C331.305 67.1333 330.405 70.9 328.605 74.1C326.871 77.2333 324.405 79.6333 321.205 81.3C318.005 82.9667 314.205 83.8 309.805 83.8ZM309.805 75.8C313.738 75.8 316.805 74.7 319.005 72.5C321.205 70.3 322.305 67.0667 322.305 62.8V48.2C322.305 43.9333 321.205 40.7 319.005 38.5C316.805 36.3 313.738 35.2 309.805 35.2C305.938 35.2 302.871 36.3 300.605 38.5C298.405 40.7 297.305 43.9333 297.305 48.2V62.8C297.305 67.0667 298.405 70.3 300.605 72.5C302.871 74.7 305.938 75.8 309.805 75.8ZM366.566 84C361.099 84 356.666 82.1667 353.266 78.5C349.932 74.8333 348.266 69.8667 348.266 63.6V47.5C348.266 41.1667 349.932 36.1667 353.266 32.5C356.599 28.8333 361.032 27 366.566 27C371.099 27 374.732 28.2333 377.466 30.7C380.199 33.1667 381.566 36.4667 381.566 40.6L379.766 38.5H381.766L381.566 26V10H390.566V83H381.566V72.5H379.766L381.566 70.4C381.566 74.6 380.199 77.9333 377.466 80.4C374.732 82.8 371.099 84 366.566 84ZM369.566 76.2C373.299 76.2 376.232 75.0333 378.366 72.7C380.499 70.3667 381.566 67.1333 381.566 63V48C381.566 43.8667 380.499 40.6333 378.366 38.3C376.232 35.9667 373.299 34.8 369.566 34.8C365.766 34.8 362.766 35.9333 360.566 38.2C358.366 40.4667 357.266 43.7333 357.266 48V63C357.266 67.2667 358.366 70.5333 360.566 72.8C362.766 75.0667 365.766 76.2 369.566 76.2ZM429.727 84C425.393 84 421.593 83.1333 418.327 81.4C415.127 79.6667 412.627 77.2333 410.827 74.1C409.093 70.9 408.227 67.2 408.227 63V48C408.227 43.7333 409.093 40.0333 410.827 36.9C412.627 33.7667 415.127 31.3333 418.327 29.6C421.593 27.8667 425.393 27 429.727 27C434.06 27 437.827 27.8667 441.027 29.6C444.293 31.3333 446.793 33.7667 448.527 36.9C450.327 40.0333 451.227 43.7333 451.227 48V57.7H417.027V63C417.027 67.3333 418.127 70.6667 420.327 73C422.527 75.2667 425.66 76.4 429.727 76.4C433.193 76.4 435.993 75.8 438.127 74.6C440.26 73.3333 441.56 71.4667 442.027 69H451.027C450.427 73.6 448.16 77.2667 444.227 80C440.36 82.6667 435.527 84 429.727 84ZM442.427 51.7V48C442.427 43.6667 441.327 40.3333 439.127 38C436.993 35.6667 433.86 34.5 429.727 34.5C425.66 34.5 422.527 35.6667 420.327 38C418.127 40.3333 417.027 43.6667 417.027 48V50.9H443.127L442.427 51.7ZM486.488 84C481.021 84 476.588 82.1667 473.188 78.5C469.854 74.8333 468.188 69.8667 468.188 63.6V47.5C468.188 41.1667 469.854 36.1667 473.188 32.5C476.521 28.8333 480.954 27 486.488 27C491.021 27 494.654 28.2333 497.388 30.7C500.121 33.1667 501.488 36.4667 501.488 40.6L499.688 38.5H501.688L501.488 26V10H510.488V83H501.488V72.5H499.688L501.488 70.4C501.488 74.6 500.121 77.9333 497.388 80.4C494.654 82.8 491.021 84 486.488 84ZM489.488 76.2C493.221 76.2 496.154 75.0333 498.288 72.7C500.421 70.3667 501.488 67.1333 501.488 63V48C501.488 43.8667 500.421 40.6333 498.288 38.3C496.154 35.9667 493.221 34.8 489.488 34.8C485.688 34.8 482.688 35.9333 480.488 38.2C478.288 40.4667 477.188 43.7333 477.188 48V63C477.188 67.2667 478.288 70.5333 480.488 72.8C482.688 75.0667 485.688 76.2 489.488 76.2ZM534.648 94V86H550.148V7.99999H534.648V-4.29153e-06H559.148V94H534.648Z" fill="white"/>
</svg>
