<svg width="569" height="104" viewBox="0 0 569 104" fill="none" xmlns="http://www.w3.org/2000/svg">
<mask id="path-1-outside-1_19_22" maskUnits="userSpaceOnUse" x="0" y="0" width="569" height="104" fill="black">
<rect fill="white" width="569" height="104"/>
<path d="M5 99V5H29.5V13H14V91H29.5V99H5Z"/>
<path d="M71.2609 89C65.7943 89 61.3609 87.1667 57.9609 83.5C54.6276 79.8333 52.9609 74.8667 52.9609 68.6V52.5C52.9609 46.1667 54.6276 41.1667 57.9609 37.5C61.2943 33.8333 65.7276 32 71.2609 32C75.7943 32 79.4276 33.2333 82.1609 35.7C84.8943 38.1667 86.2609 41.4667 86.2609 45.6L84.4609 43.5H86.4609L86.2609 31V15H95.2609V88H86.2609V77.5H84.4609L86.2609 75.4C86.2609 79.6 84.8943 82.9333 82.1609 85.4C79.4276 87.8 75.7943 89 71.2609 89ZM74.2609 81.2C77.9943 81.2 80.9276 80.0333 83.0609 77.7C85.1943 75.3667 86.2609 72.1333 86.2609 68V53C86.2609 48.8667 85.1943 45.6333 83.0609 43.3C80.9276 40.9667 77.9943 39.8 74.2609 39.8C70.4609 39.8 67.4609 40.9333 65.2609 43.2C63.0609 45.4667 61.9609 48.7333 61.9609 53V68C61.9609 72.2667 63.0609 75.5333 65.2609 77.8C67.4609 80.0667 70.4609 81.2 74.2609 81.2Z"/>
<path d="M134.422 89C130.089 89 126.289 88.1333 123.022 86.4C119.822 84.6667 117.322 82.2333 115.522 79.1C113.789 75.9 112.922 72.2 112.922 68V53C112.922 48.7333 113.789 45.0333 115.522 41.9C117.322 38.7667 119.822 36.3333 123.022 34.6C126.289 32.8667 130.089 32 134.422 32C138.755 32 142.522 32.8667 145.722 34.6C148.989 36.3333 151.489 38.7667 153.222 41.9C155.022 45.0333 155.922 48.7333 155.922 53V62.7H121.722V68C121.722 72.3333 122.822 75.6667 125.022 78C127.222 80.2667 130.355 81.4 134.422 81.4C137.889 81.4 140.689 80.8 142.822 79.6C144.955 78.3333 146.255 76.4667 146.722 74H155.722C155.122 78.6 152.855 82.2667 148.922 85C145.055 87.6667 140.222 89 134.422 89ZM147.122 56.7V53C147.122 48.6667 146.022 45.3333 143.822 43C141.689 40.6667 138.555 39.5 134.422 39.5C130.355 39.5 127.222 40.6667 125.022 43C122.822 45.3333 121.722 48.6667 121.722 53V55.9H147.822L147.122 56.7Z"/>
<path d="M188.283 88L169.883 33H179.083L191.283 70C192.016 72.2 192.683 74.3333 193.283 76.4C193.883 78.4 194.316 79.9667 194.583 81.1C194.916 79.9667 195.983 76.4 195.983 76.4C195.983 76.4 197.216 72.2 197.883 70L209.783 33H218.883L200.483 88H188.283Z"/>
<path d="M230.944 88V33H238.844V39.6H240.644L239.244 42C239.244 38.9333 240.044 36.5 241.644 34.7C243.31 32.9 245.544 32 248.344 32C251.41 32 253.777 33.1333 255.444 35.4C257.11 37.6667 257.944 40.8667 257.944 45L255.244 39.6H259.444L257.544 42C257.544 38.9333 258.377 36.5 260.044 34.7C261.777 32.9 264.044 32 266.844 32C270.31 32 272.977 33.3 274.844 35.9C276.777 38.5 277.744 41.9333 277.744 46.2V88H269.444V46.1C269.444 43.8333 268.944 42.0667 267.944 40.8C267.01 39.5333 265.61 38.9 263.744 38.9C261.944 38.9 260.51 39.5333 259.444 40.8C258.444 42 257.944 43.7333 257.944 46V88H250.744V46.1C250.744 43.7667 250.21 42 249.144 40.8C248.144 39.5333 246.71 38.9 244.844 38.9C242.977 38.9 241.577 39.5333 240.644 40.8C239.71 42 239.244 43.7333 239.244 46V88H230.944Z"/>
<path d="M314.305 88.8C309.905 88.8 306.105 87.9667 302.905 86.3C299.705 84.6333 297.205 82.2333 295.405 79.1C293.671 75.9 292.805 72.1333 292.805 67.8V53.2C292.805 48.8 293.671 45.0333 295.405 41.9C297.205 38.7667 299.705 36.3667 302.905 34.7C306.105 33.0333 309.905 32.2 314.305 32.2C318.705 32.2 322.505 33.0333 325.705 34.7C328.905 36.3667 331.371 38.7667 333.105 41.9C334.905 45.0333 335.805 48.7667 335.805 53.1V67.8C335.805 72.1333 334.905 75.9 333.105 79.1C331.371 82.2333 328.905 84.6333 325.705 86.3C322.505 87.9667 318.705 88.8 314.305 88.8ZM314.305 80.8C318.238 80.8 321.305 79.7 323.505 77.5C325.705 75.3 326.805 72.0667 326.805 67.8V53.2C326.805 48.9333 325.705 45.7 323.505 43.5C321.305 41.3 318.238 40.2 314.305 40.2C310.438 40.2 307.371 41.3 305.105 43.5C302.905 45.7 301.805 48.9333 301.805 53.2V67.8C301.805 72.0667 302.905 75.3 305.105 77.5C307.371 79.7 310.438 80.8 314.305 80.8Z"/>
<path d="M371.066 89C365.599 89 361.166 87.1667 357.766 83.5C354.432 79.8333 352.766 74.8667 352.766 68.6V52.5C352.766 46.1667 354.432 41.1667 357.766 37.5C361.099 33.8333 365.532 32 371.066 32C375.599 32 379.232 33.2333 381.966 35.7C384.699 38.1667 386.066 41.4667 386.066 45.6L384.266 43.5H386.266L386.066 31V15H395.066V88H386.066V77.5H384.266L386.066 75.4C386.066 79.6 384.699 82.9333 381.966 85.4C379.232 87.8 375.599 89 371.066 89ZM374.066 81.2C377.799 81.2 380.732 80.0333 382.866 77.7C384.999 75.3667 386.066 72.1333 386.066 68V53C386.066 48.8667 384.999 45.6333 382.866 43.3C380.732 40.9667 377.799 39.8 374.066 39.8C370.266 39.8 367.266 40.9333 365.066 43.2C362.866 45.4667 361.766 48.7333 361.766 53V68C361.766 72.2667 362.866 75.5333 365.066 77.8C367.266 80.0667 370.266 81.2 374.066 81.2Z"/>
<path d="M434.227 89C429.893 89 426.093 88.1333 422.827 86.4C419.627 84.6667 417.127 82.2333 415.327 79.1C413.593 75.9 412.727 72.2 412.727 68V53C412.727 48.7333 413.593 45.0333 415.327 41.9C417.127 38.7667 419.627 36.3333 422.827 34.6C426.093 32.8667 429.893 32 434.227 32C438.56 32 442.327 32.8667 445.527 34.6C448.793 36.3333 451.293 38.7667 453.027 41.9C454.827 45.0333 455.727 48.7333 455.727 53V62.7H421.527V68C421.527 72.3333 422.627 75.6667 424.827 78C427.027 80.2667 430.16 81.4 434.227 81.4C437.693 81.4 440.493 80.8 442.627 79.6C444.76 78.3333 446.06 76.4667 446.527 74H455.527C454.927 78.6 452.66 82.2667 448.727 85C444.86 87.6667 440.027 89 434.227 89ZM446.927 56.7V53C446.927 48.6667 445.827 45.3333 443.627 43C441.493 40.6667 438.36 39.5 434.227 39.5C430.16 39.5 427.027 40.6667 424.827 43C422.627 45.3333 421.527 48.6667 421.527 53V55.9H447.627L446.927 56.7Z"/>
<path d="M490.987 89C485.521 89 481.087 87.1667 477.688 83.5C474.354 79.8333 472.688 74.8667 472.688 68.6V52.5C472.688 46.1667 474.354 41.1667 477.688 37.5C481.021 33.8333 485.454 32 490.987 32C495.521 32 499.154 33.2333 501.888 35.7C504.621 38.1667 505.987 41.4667 505.987 45.6L504.188 43.5H506.188L505.987 31V15H514.987V88H505.987V77.5H504.188L505.987 75.4C505.987 79.6 504.621 82.9333 501.888 85.4C499.154 87.8 495.521 89 490.987 89ZM493.987 81.2C497.721 81.2 500.654 80.0333 502.788 77.7C504.921 75.3667 505.987 72.1333 505.987 68V53C505.987 48.8667 504.921 45.6333 502.788 43.3C500.654 40.9667 497.721 39.8 493.987 39.8C490.187 39.8 487.187 40.9333 484.987 43.2C482.787 45.4667 481.688 48.7333 481.688 53V68C481.688 72.2667 482.787 75.5333 484.987 77.8C487.187 80.0667 490.187 81.2 493.987 81.2Z"/>
<path d="M539.148 99V91H554.648V13H539.148V5H563.648V99H539.148Z"/>
</mask>
<path d="M5 99V5H29.5V13H14V91H29.5V99H5Z" fill="white"/>
<path d="M71.2609 89C65.7943 89 61.3609 87.1667 57.9609 83.5C54.6276 79.8333 52.9609 74.8667 52.9609 68.6V52.5C52.9609 46.1667 54.6276 41.1667 57.9609 37.5C61.2943 33.8333 65.7276 32 71.2609 32C75.7943 32 79.4276 33.2333 82.1609 35.7C84.8943 38.1667 86.2609 41.4667 86.2609 45.6L84.4609 43.5H86.4609L86.2609 31V15H95.2609V88H86.2609V77.5H84.4609L86.2609 75.4C86.2609 79.6 84.8943 82.9333 82.1609 85.4C79.4276 87.8 75.7943 89 71.2609 89ZM74.2609 81.2C77.9943 81.2 80.9276 80.0333 83.0609 77.7C85.1943 75.3667 86.2609 72.1333 86.2609 68V53C86.2609 48.8667 85.1943 45.6333 83.0609 43.3C80.9276 40.9667 77.9943 39.8 74.2609 39.8C70.4609 39.8 67.4609 40.9333 65.2609 43.2C63.0609 45.4667 61.9609 48.7333 61.9609 53V68C61.9609 72.2667 63.0609 75.5333 65.2609 77.8C67.4609 80.0667 70.4609 81.2 74.2609 81.2Z" fill="white"/>
<path d="M134.422 89C130.089 89 126.289 88.1333 123.022 86.4C119.822 84.6667 117.322 82.2333 115.522 79.1C113.789 75.9 112.922 72.2 112.922 68V53C112.922 48.7333 113.789 45.0333 115.522 41.9C117.322 38.7667 119.822 36.3333 123.022 34.6C126.289 32.8667 130.089 32 134.422 32C138.755 32 142.522 32.8667 145.722 34.6C148.989 36.3333 151.489 38.7667 153.222 41.9C155.022 45.0333 155.922 48.7333 155.922 53V62.7H121.722V68C121.722 72.3333 122.822 75.6667 125.022 78C127.222 80.2667 130.355 81.4 134.422 81.4C137.889 81.4 140.689 80.8 142.822 79.6C144.955 78.3333 146.255 76.4667 146.722 74H155.722C155.122 78.6 152.855 82.2667 148.922 85C145.055 87.6667 140.222 89 134.422 89ZM147.122 56.7V53C147.122 48.6667 146.022 45.3333 143.822 43C141.689 40.6667 138.555 39.5 134.422 39.5C130.355 39.5 127.222 40.6667 125.022 43C122.822 45.3333 121.722 48.6667 121.722 53V55.9H147.822L147.122 56.7Z" fill="white"/>
<path d="M188.283 88L169.883 33H179.083L191.283 70C192.016 72.2 192.683 74.3333 193.283 76.4C193.883 78.4 194.316 79.9667 194.583 81.1C194.916 79.9667 195.983 76.4 195.983 76.4C195.983 76.4 197.216 72.2 197.883 70L209.783 33H218.883L200.483 88H188.283Z" fill="white"/>
<path d="M230.944 88V33H238.844V39.6H240.644L239.244 42C239.244 38.9333 240.044 36.5 241.644 34.7C243.31 32.9 245.544 32 248.344 32C251.41 32 253.777 33.1333 255.444 35.4C257.11 37.6667 257.944 40.8667 257.944 45L255.244 39.6H259.444L257.544 42C257.544 38.9333 258.377 36.5 260.044 34.7C261.777 32.9 264.044 32 266.844 32C270.31 32 272.977 33.3 274.844 35.9C276.777 38.5 277.744 41.9333 277.744 46.2V88H269.444V46.1C269.444 43.8333 268.944 42.0667 267.944 40.8C267.01 39.5333 265.61 38.9 263.744 38.9C261.944 38.9 260.51 39.5333 259.444 40.8C258.444 42 257.944 43.7333 257.944 46V88H250.744V46.1C250.744 43.7667 250.21 42 249.144 40.8C248.144 39.5333 246.71 38.9 244.844 38.9C242.977 38.9 241.577 39.5333 240.644 40.8C239.71 42 239.244 43.7333 239.244 46V88H230.944Z" fill="white"/>
<path d="M314.305 88.8C309.905 88.8 306.105 87.9667 302.905 86.3C299.705 84.6333 297.205 82.2333 295.405 79.1C293.671 75.9 292.805 72.1333 292.805 67.8V53.2C292.805 48.8 293.671 45.0333 295.405 41.9C297.205 38.7667 299.705 36.3667 302.905 34.7C306.105 33.0333 309.905 32.2 314.305 32.2C318.705 32.2 322.505 33.0333 325.705 34.7C328.905 36.3667 331.371 38.7667 333.105 41.9C334.905 45.0333 335.805 48.7667 335.805 53.1V67.8C335.805 72.1333 334.905 75.9 333.105 79.1C331.371 82.2333 328.905 84.6333 325.705 86.3C322.505 87.9667 318.705 88.8 314.305 88.8ZM314.305 80.8C318.238 80.8 321.305 79.7 323.505 77.5C325.705 75.3 326.805 72.0667 326.805 67.8V53.2C326.805 48.9333 325.705 45.7 323.505 43.5C321.305 41.3 318.238 40.2 314.305 40.2C310.438 40.2 307.371 41.3 305.105 43.5C302.905 45.7 301.805 48.9333 301.805 53.2V67.8C301.805 72.0667 302.905 75.3 305.105 77.5C307.371 79.7 310.438 80.8 314.305 80.8Z" fill="white"/>
<path d="M371.066 89C365.599 89 361.166 87.1667 357.766 83.5C354.432 79.8333 352.766 74.8667 352.766 68.6V52.5C352.766 46.1667 354.432 41.1667 357.766 37.5C361.099 33.8333 365.532 32 371.066 32C375.599 32 379.232 33.2333 381.966 35.7C384.699 38.1667 386.066 41.4667 386.066 45.6L384.266 43.5H386.266L386.066 31V15H395.066V88H386.066V77.5H384.266L386.066 75.4C386.066 79.6 384.699 82.9333 381.966 85.4C379.232 87.8 375.599 89 371.066 89ZM374.066 81.2C377.799 81.2 380.732 80.0333 382.866 77.7C384.999 75.3667 386.066 72.1333 386.066 68V53C386.066 48.8667 384.999 45.6333 382.866 43.3C380.732 40.9667 377.799 39.8 374.066 39.8C370.266 39.8 367.266 40.9333 365.066 43.2C362.866 45.4667 361.766 48.7333 361.766 53V68C361.766 72.2667 362.866 75.5333 365.066 77.8C367.266 80.0667 370.266 81.2 374.066 81.2Z" fill="white"/>
<path d="M434.227 89C429.893 89 426.093 88.1333 422.827 86.4C419.627 84.6667 417.127 82.2333 415.327 79.1C413.593 75.9 412.727 72.2 412.727 68V53C412.727 48.7333 413.593 45.0333 415.327 41.9C417.127 38.7667 419.627 36.3333 422.827 34.6C426.093 32.8667 429.893 32 434.227 32C438.56 32 442.327 32.8667 445.527 34.6C448.793 36.3333 451.293 38.7667 453.027 41.9C454.827 45.0333 455.727 48.7333 455.727 53V62.7H421.527V68C421.527 72.3333 422.627 75.6667 424.827 78C427.027 80.2667 430.16 81.4 434.227 81.4C437.693 81.4 440.493 80.8 442.627 79.6C444.76 78.3333 446.06 76.4667 446.527 74H455.527C454.927 78.6 452.66 82.2667 448.727 85C444.86 87.6667 440.027 89 434.227 89ZM446.927 56.7V53C446.927 48.6667 445.827 45.3333 443.627 43C441.493 40.6667 438.36 39.5 434.227 39.5C430.16 39.5 427.027 40.6667 424.827 43C422.627 45.3333 421.527 48.6667 421.527 53V55.9H447.627L446.927 56.7Z" fill="white"/>
<path d="M490.987 89C485.521 89 481.087 87.1667 477.688 83.5C474.354 79.8333 472.688 74.8667 472.688 68.6V52.5C472.688 46.1667 474.354 41.1667 477.688 37.5C481.021 33.8333 485.454 32 490.987 32C495.521 32 499.154 33.2333 501.888 35.7C504.621 38.1667 505.987 41.4667 505.987 45.6L504.188 43.5H506.188L505.987 31V15H514.987V88H505.987V77.5H504.188L505.987 75.4C505.987 79.6 504.621 82.9333 501.888 85.4C499.154 87.8 495.521 89 490.987 89ZM493.987 81.2C497.721 81.2 500.654 80.0333 502.788 77.7C504.921 75.3667 505.987 72.1333 505.987 68V53C505.987 48.8667 504.921 45.6333 502.788 43.3C500.654 40.9667 497.721 39.8 493.987 39.8C490.187 39.8 487.187 40.9333 484.987 43.2C482.787 45.4667 481.688 48.7333 481.688 53V68C481.688 72.2667 482.787 75.5333 484.987 77.8C487.187 80.0667 490.187 81.2 493.987 81.2Z" fill="white"/>
<path d="M539.148 99V91H554.648V13H539.148V5H563.648V99H539.148Z" fill="white"/>
<path d="M5 99V5H29.5V13H14V91H29.5V99H5Z" stroke="black" stroke-width="10" stroke-linejoin="round" mask="url(#path-1-outside-1_19_22)"/>
<path d="M71.2609 89C65.7943 89 61.3609 87.1667 57.9609 83.5C54.6276 79.8333 52.9609 74.8667 52.9609 68.6V52.5C52.9609 46.1667 54.6276 41.1667 57.9609 37.5C61.2943 33.8333 65.7276 32 71.2609 32C75.7943 32 79.4276 33.2333 82.1609 35.7C84.8943 38.1667 86.2609 41.4667 86.2609 45.6L84.4609 43.5H86.4609L86.2609 31V15H95.2609V88H86.2609V77.5H84.4609L86.2609 75.4C86.2609 79.6 84.8943 82.9333 82.1609 85.4C79.4276 87.8 75.7943 89 71.2609 89ZM74.2609 81.2C77.9943 81.2 80.9276 80.0333 83.0609 77.7C85.1943 75.3667 86.2609 72.1333 86.2609 68V53C86.2609 48.8667 85.1943 45.6333 83.0609 43.3C80.9276 40.9667 77.9943 39.8 74.2609 39.8C70.4609 39.8 67.4609 40.9333 65.2609 43.2C63.0609 45.4667 61.9609 48.7333 61.9609 53V68C61.9609 72.2667 63.0609 75.5333 65.2609 77.8C67.4609 80.0667 70.4609 81.2 74.2609 81.2Z" stroke="black" stroke-width="10" stroke-linejoin="round" mask="url(#path-1-outside-1_19_22)"/>
<path d="M134.422 89C130.089 89 126.289 88.1333 123.022 86.4C119.822 84.6667 117.322 82.2333 115.522 79.1C113.789 75.9 112.922 72.2 112.922 68V53C112.922 48.7333 113.789 45.0333 115.522 41.9C117.322 38.7667 119.822 36.3333 123.022 34.6C126.289 32.8667 130.089 32 134.422 32C138.755 32 142.522 32.8667 145.722 34.6C148.989 36.3333 151.489 38.7667 153.222 41.9C155.022 45.0333 155.922 48.7333 155.922 53V62.7H121.722V68C121.722 72.3333 122.822 75.6667 125.022 78C127.222 80.2667 130.355 81.4 134.422 81.4C137.889 81.4 140.689 80.8 142.822 79.6C144.955 78.3333 146.255 76.4667 146.722 74H155.722C155.122 78.6 152.855 82.2667 148.922 85C145.055 87.6667 140.222 89 134.422 89ZM147.122 56.7V53C147.122 48.6667 146.022 45.3333 143.822 43C141.689 40.6667 138.555 39.5 134.422 39.5C130.355 39.5 127.222 40.6667 125.022 43C122.822 45.3333 121.722 48.6667 121.722 53V55.9H147.822L147.122 56.7Z" stroke="black" stroke-width="10" stroke-linejoin="round" mask="url(#path-1-outside-1_19_22)"/>
<path d="M188.283 88L169.883 33H179.083L191.283 70C192.016 72.2 192.683 74.3333 193.283 76.4C193.883 78.4 194.316 79.9667 194.583 81.1C194.916 79.9667 195.983 76.4 195.983 76.4C195.983 76.4 197.216 72.2 197.883 70L209.783 33H218.883L200.483 88H188.283Z" stroke="black" stroke-width="10" stroke-linejoin="round" mask="url(#path-1-outside-1_19_22)"/>
<path d="M230.944 88V33H238.844V39.6H240.644L239.244 42C239.244 38.9333 240.044 36.5 241.644 34.7C243.31 32.9 245.544 32 248.344 32C251.41 32 253.777 33.1333 255.444 35.4C257.11 37.6667 257.944 40.8667 257.944 45L255.244 39.6H259.444L257.544 42C257.544 38.9333 258.377 36.5 260.044 34.7C261.777 32.9 264.044 32 266.844 32C270.31 32 272.977 33.3 274.844 35.9C276.777 38.5 277.744 41.9333 277.744 46.2V88H269.444V46.1C269.444 43.8333 268.944 42.0667 267.944 40.8C267.01 39.5333 265.61 38.9 263.744 38.9C261.944 38.9 260.51 39.5333 259.444 40.8C258.444 42 257.944 43.7333 257.944 46V88H250.744V46.1C250.744 43.7667 250.21 42 249.144 40.8C248.144 39.5333 246.71 38.9 244.844 38.9C242.977 38.9 241.577 39.5333 240.644 40.8C239.71 42 239.244 43.7333 239.244 46V88H230.944Z" stroke="black" stroke-width="10" stroke-linejoin="round" mask="url(#path-1-outside-1_19_22)"/>
<path d="M314.305 88.8C309.905 88.8 306.105 87.9667 302.905 86.3C299.705 84.6333 297.205 82.2333 295.405 79.1C293.671 75.9 292.805 72.1333 292.805 67.8V53.2C292.805 48.8 293.671 45.0333 295.405 41.9C297.205 38.7667 299.705 36.3667 302.905 34.7C306.105 33.0333 309.905 32.2 314.305 32.2C318.705 32.2 322.505 33.0333 325.705 34.7C328.905 36.3667 331.371 38.7667 333.105 41.9C334.905 45.0333 335.805 48.7667 335.805 53.1V67.8C335.805 72.1333 334.905 75.9 333.105 79.1C331.371 82.2333 328.905 84.6333 325.705 86.3C322.505 87.9667 318.705 88.8 314.305 88.8ZM314.305 80.8C318.238 80.8 321.305 79.7 323.505 77.5C325.705 75.3 326.805 72.0667 326.805 67.8V53.2C326.805 48.9333 325.705 45.7 323.505 43.5C321.305 41.3 318.238 40.2 314.305 40.2C310.438 40.2 307.371 41.3 305.105 43.5C302.905 45.7 301.805 48.9333 301.805 53.2V67.8C301.805 72.0667 302.905 75.3 305.105 77.5C307.371 79.7 310.438 80.8 314.305 80.8Z" stroke="black" stroke-width="10" stroke-linejoin="round" mask="url(#path-1-outside-1_19_22)"/>
<path d="M371.066 89C365.599 89 361.166 87.1667 357.766 83.5C354.432 79.8333 352.766 74.8667 352.766 68.6V52.5C352.766 46.1667 354.432 41.1667 357.766 37.5C361.099 33.8333 365.532 32 371.066 32C375.599 32 379.232 33.2333 381.966 35.7C384.699 38.1667 386.066 41.4667 386.066 45.6L384.266 43.5H386.266L386.066 31V15H395.066V88H386.066V77.5H384.266L386.066 75.4C386.066 79.6 384.699 82.9333 381.966 85.4C379.232 87.8 375.599 89 371.066 89ZM374.066 81.2C377.799 81.2 380.732 80.0333 382.866 77.7C384.999 75.3667 386.066 72.1333 386.066 68V53C386.066 48.8667 384.999 45.6333 382.866 43.3C380.732 40.9667 377.799 39.8 374.066 39.8C370.266 39.8 367.266 40.9333 365.066 43.2C362.866 45.4667 361.766 48.7333 361.766 53V68C361.766 72.2667 362.866 75.5333 365.066 77.8C367.266 80.0667 370.266 81.2 374.066 81.2Z" stroke="black" stroke-width="10" stroke-linejoin="round" mask="url(#path-1-outside-1_19_22)"/>
<path d="M434.227 89C429.893 89 426.093 88.1333 422.827 86.4C419.627 84.6667 417.127 82.2333 415.327 79.1C413.593 75.9 412.727 72.2 412.727 68V53C412.727 48.7333 413.593 45.0333 415.327 41.9C417.127 38.7667 419.627 36.3333 422.827 34.6C426.093 32.8667 429.893 32 434.227 32C438.56 32 442.327 32.8667 445.527 34.6C448.793 36.3333 451.293 38.7667 453.027 41.9C454.827 45.0333 455.727 48.7333 455.727 53V62.7H421.527V68C421.527 72.3333 422.627 75.6667 424.827 78C427.027 80.2667 430.16 81.4 434.227 81.4C437.693 81.4 440.493 80.8 442.627 79.6C444.76 78.3333 446.06 76.4667 446.527 74H455.527C454.927 78.6 452.66 82.2667 448.727 85C444.86 87.6667 440.027 89 434.227 89ZM446.927 56.7V53C446.927 48.6667 445.827 45.3333 443.627 43C441.493 40.6667 438.36 39.5 434.227 39.5C430.16 39.5 427.027 40.6667 424.827 43C422.627 45.3333 421.527 48.6667 421.527 53V55.9H447.627L446.927 56.7Z" stroke="black" stroke-width="10" stroke-linejoin="round" mask="url(#path-1-outside-1_19_22)"/>
<path d="M490.987 89C485.521 89 481.087 87.1667 477.688 83.5C474.354 79.8333 472.688 74.8667 472.688 68.6V52.5C472.688 46.1667 474.354 41.1667 477.688 37.5C481.021 33.8333 485.454 32 490.987 32C495.521 32 499.154 33.2333 501.888 35.7C504.621 38.1667 505.987 41.4667 505.987 45.6L504.188 43.5H506.188L505.987 31V15H514.987V88H505.987V77.5H504.188L505.987 75.4C505.987 79.6 504.621 82.9333 501.888 85.4C499.154 87.8 495.521 89 490.987 89ZM493.987 81.2C497.721 81.2 500.654 80.0333 502.788 77.7C504.921 75.3667 505.987 72.1333 505.987 68V53C505.987 48.8667 504.921 45.6333 502.788 43.3C500.654 40.9667 497.721 39.8 493.987 39.8C490.187 39.8 487.187 40.9333 484.987 43.2C482.787 45.4667 481.688 48.7333 481.688 53V68C481.688 72.2667 482.787 75.5333 484.987 77.8C487.187 80.0667 490.187 81.2 493.987 81.2Z" stroke="black" stroke-width="10" stroke-linejoin="round" mask="url(#path-1-outside-1_19_22)"/>
<path d="M539.148 99V91H554.648V13H539.148V5H563.648V99H539.148Z" stroke="black" stroke-width="10" stroke-linejoin="round" mask="url(#path-1-outside-1_19_22)"/>
</svg>
