<svg width="560" height="101" viewBox="0 0 560 101" fill="none" xmlns="http://www.w3.org/2000/svg">
<path d="M0.500001 94V-4.29153e-06H25V7.99999H9.5V86H25V94H0.500001ZM49.1609 101V28H58.1609V38.5H59.9609L58.1609 40.6C58.1609 36.4 59.5276 33.1 62.2609 30.7C65.0609 28.2333 68.7276 27 73.2609 27C78.7943 27 83.1943 28.8333 86.4609 32.5C89.7943 36.1 91.4609 41.0667 91.4609 47.4V63.5C91.4609 67.7 90.6943 71.3333 89.1609 74.4C87.6943 77.4667 85.5943 79.8333 82.8609 81.5C80.1943 83.1667 76.9943 84 73.2609 84C68.7943 84 65.1609 82.7667 62.3609 80.3C59.5609 77.8333 58.1609 74.5333 58.1609 70.4L59.9609 72.5H57.9609L58.1609 85V101H49.1609ZM70.2609 76.2C74.0609 76.2 77.0276 75.0667 79.1609 72.8C81.3609 70.5333 82.4609 67.2667 82.4609 63V48C82.4609 43.7333 81.3609 40.4667 79.1609 38.2C77.0276 35.9333 74.0609 34.8 70.2609 34.8C66.5943 34.8 63.6609 35.9667 61.4609 38.3C59.2609 40.6333 58.1609 43.8667 58.1609 48V63C58.1609 67.1333 59.2609 70.3667 61.4609 72.7C63.6609 75.0333 66.5943 76.2 70.2609 76.2ZM111.022 83V28H119.822V38.5H121.922L119.022 45C119.022 39.0667 120.289 34.6 122.822 31.6C125.422 28.5333 129.255 27 134.322 27C140.122 27 144.722 28.8333 148.122 32.5C151.589 36.1 153.322 41 153.322 47.2V50.5H144.322V48C144.322 43.6667 143.255 40.3667 141.122 38.1C139.055 35.7667 136.089 34.6 132.222 34.6C128.422 34.6 125.422 35.7667 123.222 38.1C121.089 40.4333 120.022 43.7333 120.022 48V83H111.022ZM189.883 83.8C185.483 83.8 181.683 82.9667 178.483 81.3C175.283 79.6333 172.783 77.2333 170.983 74.1C169.249 70.9 168.383 67.1333 168.383 62.8V48.2C168.383 43.8 169.249 40.0333 170.983 36.9C172.783 33.7667 175.283 31.3667 178.483 29.7C181.683 28.0333 185.483 27.2 189.883 27.2C194.283 27.2 198.083 28.0333 201.283 29.7C204.483 31.3667 206.949 33.7667 208.683 36.9C210.483 40.0333 211.383 43.7667 211.383 48.1V62.8C211.383 67.1333 210.483 70.9 208.683 74.1C206.949 77.2333 204.483 79.6333 201.283 81.3C198.083 82.9667 194.283 83.8 189.883 83.8ZM189.883 75.8C193.816 75.8 196.883 74.7 199.083 72.5C201.283 70.3 202.383 67.0667 202.383 62.8V48.2C202.383 43.9333 201.283 40.7 199.083 38.5C196.883 36.3 193.816 35.2 189.883 35.2C186.016 35.2 182.949 36.3 180.683 38.5C178.483 40.7 177.383 43.9333 177.383 48.2V62.8C177.383 67.0667 178.483 70.3 180.683 72.5C182.949 74.7 186.016 75.8 189.883 75.8ZM228.344 101V92.7H241.244C245.377 92.7 248.577 91.5667 250.844 89.3C253.177 87.1 254.344 83.9667 254.344 79.9V36.2H231.344V28H263.344V79.9C263.344 86.3667 261.344 91.5 257.344 95.3C253.344 99.1 247.977 101 241.244 101H228.344ZM258.344 18.1C256.144 18.1 254.41 17.5333 253.144 16.4C251.877 15.2667 251.244 13.7333 251.244 11.8C251.244 9.8 251.877 8.23333 253.144 7.09999C254.41 5.9 256.144 5.3 258.344 5.3C260.544 5.3 262.277 5.9 263.544 7.09999C264.81 8.23333 265.444 9.8 265.444 11.8C265.444 13.7333 264.81 15.2667 263.544 16.4C262.277 17.5333 260.544 18.1 258.344 18.1ZM309.805 84C305.471 84 301.671 83.1333 298.405 81.4C295.205 79.6667 292.705 77.2333 290.905 74.1C289.171 70.9 288.305 67.2 288.305 63V48C288.305 43.7333 289.171 40.0333 290.905 36.9C292.705 33.7667 295.205 31.3333 298.405 29.6C301.671 27.8667 305.471 27 309.805 27C314.138 27 317.905 27.8667 321.105 29.6C324.371 31.3333 326.871 33.7667 328.605 36.9C330.405 40.0333 331.305 43.7333 331.305 48V57.7H297.105V63C297.105 67.3333 298.205 70.6667 300.405 73C302.605 75.2667 305.738 76.4 309.805 76.4C313.271 76.4 316.071 75.8 318.205 74.6C320.338 73.3333 321.638 71.4667 322.105 69H331.105C330.505 73.6 328.238 77.2667 324.305 80C320.438 82.6667 315.605 84 309.805 84ZM322.505 51.7V48C322.505 43.6667 321.405 40.3333 319.205 38C317.071 35.6667 313.938 34.5 309.805 34.5C305.738 34.5 302.605 35.6667 300.405 38C298.205 40.3333 297.105 43.6667 297.105 48V50.9H323.205L322.505 51.7ZM370.166 84C365.766 84 361.899 83.1667 358.566 81.5C355.299 79.8333 352.766 77.4333 350.966 74.3C349.166 71.1 348.266 67.3333 348.266 63V48C348.266 43.6 349.166 39.8333 350.966 36.7C352.766 33.5667 355.299 31.1667 358.566 29.5C361.899 27.8333 365.766 27 370.166 27C376.499 27 381.599 28.7 385.466 32.1C389.332 35.5 391.366 40.1333 391.566 46H382.566C382.366 42.4667 381.166 39.7667 378.966 37.9C376.832 35.9667 373.899 35 370.166 35C366.232 35 363.099 36.1333 360.766 38.4C358.432 40.6 357.266 43.7667 357.266 47.9V63C357.266 67.1333 358.432 70.3333 360.766 72.6C363.099 74.8667 366.232 76 370.166 76C373.899 76 376.832 75.0333 378.966 73.1C381.166 71.1667 382.366 68.4667 382.566 65H391.566C391.366 70.8667 389.332 75.5 385.466 78.9C381.599 82.3 376.499 84 370.166 84ZM435.727 83C430.993 83 427.293 81.7333 424.627 79.2C422.027 76.6667 420.727 73.1 420.727 68.5V36.2H405.227V28H420.727V12.5H429.727V28H451.727V36.2H429.727V68.5C429.727 72.7 431.727 74.8 435.727 74.8H450.727V83H435.727ZM487.988 83.8C484.254 83.8 480.988 83.2333 478.188 82.1C475.454 80.9 473.254 79.2333 471.588 77.1C469.988 74.9667 469.021 72.4333 468.688 69.5H477.688C478.088 71.4333 479.154 72.9667 480.888 74.1C482.688 75.2333 485.054 75.8 487.988 75.8H492.188C495.721 75.8 498.354 75.1 500.088 73.7C501.821 72.2333 502.688 70.3 502.688 67.9C502.688 65.5667 501.888 63.7333 500.288 62.4C498.754 61 496.454 60.0667 493.388 59.6L485.988 58.4C480.588 57.4667 476.554 55.8 473.888 53.4C471.288 50.9333 469.988 47.3667 469.988 42.7C469.988 37.7667 471.554 33.9667 474.688 31.3C477.821 28.5667 482.521 27.2 488.788 27.2H492.588C497.854 27.2 502.088 28.4333 505.288 30.9C508.488 33.3667 510.421 36.7 511.087 40.9H502.088C501.688 39.1667 500.688 37.8 499.088 36.8C497.488 35.7333 495.321 35.2 492.588 35.2H488.788C485.388 35.2 482.888 35.8333 481.288 37.1C479.754 38.3667 478.988 40.2667 478.988 42.8C478.988 45.0667 479.654 46.7333 480.988 47.8C482.321 48.8667 484.421 49.6333 487.288 50.1L494.688 51.3C500.621 52.2333 504.921 53.9667 507.588 56.5C510.321 59.0333 511.688 62.7 511.688 67.5C511.688 72.5667 510.054 76.5667 506.788 79.5C503.588 82.3667 498.721 83.8 492.188 83.8H487.988ZM534.648 94V86H550.148V7.99999H534.648V-4.29153e-06H559.148V94H534.648Z" fill="white"/>
</svg>
