<svg width="569" height="111" viewBox="0 0 569 111" fill="none" xmlns="http://www.w3.org/2000/svg">
<mask id="path-1-outside-1_19_21" maskUnits="userSpaceOnUse" x="0" y="0" width="569" height="111" fill="black">
<rect fill="white" width="569" height="111"/>
<path d="M5 99V5H29.5V13H14V91H29.5V99H5Z"/>
<path d="M53.6609 106V33H62.6609V43.5H64.4609L62.6609 45.6C62.6609 41.4 64.0276 38.1 66.7609 35.7C69.5609 33.2333 73.2276 32 77.7609 32C83.2943 32 87.6943 33.8333 90.9609 37.5C94.2943 41.1 95.9609 46.0667 95.9609 52.4V68.5C95.9609 72.7 95.1943 76.3333 93.6609 79.4C92.1943 82.4667 90.0943 84.8333 87.3609 86.5C84.6943 88.1667 81.4943 89 77.7609 89C73.2943 89 69.6609 87.7667 66.8609 85.3C64.0609 82.8333 62.6609 79.5333 62.6609 75.4L64.4609 77.5H62.4609L62.6609 90V106H53.6609ZM74.7609 81.2C78.5609 81.2 81.5276 80.0667 83.6609 77.8C85.8609 75.5333 86.9609 72.2667 86.9609 68V53C86.9609 48.7333 85.8609 45.4667 83.6609 43.2C81.5276 40.9333 78.5609 39.8 74.7609 39.8C71.0943 39.8 68.1609 40.9667 65.9609 43.3C63.7609 45.6333 62.6609 48.8667 62.6609 53V68C62.6609 72.1333 63.7609 75.3667 65.9609 77.7C68.1609 80.0333 71.0943 81.2 74.7609 81.2Z"/>
<path d="M115.522 88V33H124.322V43.5H126.422L123.522 50C123.522 44.0667 124.789 39.6 127.322 36.6C129.922 33.5333 133.755 32 138.822 32C144.622 32 149.222 33.8333 152.622 37.5C156.089 41.1 157.822 46 157.822 52.2V55.5H148.822V53C148.822 48.6667 147.755 45.3667 145.622 43.1C143.555 40.7667 140.589 39.6 136.722 39.6C132.922 39.6 129.922 40.7667 127.722 43.1C125.589 45.4333 124.522 48.7333 124.522 53V88H115.522Z"/>
<path d="M194.383 88.8C189.983 88.8 186.183 87.9667 182.983 86.3C179.783 84.6333 177.283 82.2333 175.483 79.1C173.749 75.9 172.883 72.1333 172.883 67.8V53.2C172.883 48.8 173.749 45.0333 175.483 41.9C177.283 38.7667 179.783 36.3667 182.983 34.7C186.183 33.0333 189.983 32.2 194.383 32.2C198.783 32.2 202.583 33.0333 205.783 34.7C208.983 36.3667 211.449 38.7667 213.183 41.9C214.983 45.0333 215.883 48.7667 215.883 53.1V67.8C215.883 72.1333 214.983 75.9 213.183 79.1C211.449 82.2333 208.983 84.6333 205.783 86.3C202.583 87.9667 198.783 88.8 194.383 88.8ZM194.383 80.8C198.316 80.8 201.383 79.7 203.583 77.5C205.783 75.3 206.883 72.0667 206.883 67.8V53.2C206.883 48.9333 205.783 45.7 203.583 43.5C201.383 41.3 198.316 40.2 194.383 40.2C190.516 40.2 187.449 41.3 185.183 43.5C182.983 45.7 181.883 48.9333 181.883 53.2V67.8C181.883 72.0667 182.983 75.3 185.183 77.5C187.449 79.7 190.516 80.8 194.383 80.8Z"/>
<path d="M232.844 106V97.7H245.744C249.877 97.7 253.077 96.5667 255.344 94.3C257.677 92.1 258.844 88.9667 258.844 84.9V41.2H235.844V33H267.844V84.9C267.844 91.3667 265.844 96.5 261.844 100.3C257.844 104.1 252.477 106 245.744 106H232.844ZM262.844 23.1C260.644 23.1 258.91 22.5333 257.644 21.4C256.377 20.2667 255.744 18.7333 255.744 16.8C255.744 14.8 256.377 13.2333 257.644 12.1C258.91 10.9 260.644 10.3 262.844 10.3C265.044 10.3 266.777 10.9 268.044 12.1C269.31 13.2333 269.944 14.8 269.944 16.8C269.944 18.7333 269.31 20.2667 268.044 21.4C266.777 22.5333 265.044 23.1 262.844 23.1Z"/>
<path d="M374.666 89C370.266 89 366.399 88.1667 363.066 86.5C359.799 84.8333 357.266 82.4333 355.466 79.3C353.666 76.1 352.766 72.3333 352.766 68V53C352.766 48.6 353.666 44.8333 355.466 41.7C357.266 38.5667 359.799 36.1667 363.066 34.5C366.399 32.8333 370.266 32 374.666 32C380.999 32 386.099 33.7 389.966 37.1C393.832 40.5 395.866 45.1333 396.066 51H387.066C386.866 47.4667 385.666 44.7667 383.466 42.9C381.332 40.9667 378.399 40 374.666 40C370.732 40 367.599 41.1333 365.266 43.4C362.932 45.6 361.766 48.7667 361.766 52.9V68C361.766 72.1333 362.932 75.3333 365.266 77.6C367.599 79.8667 370.732 81 374.666 81C378.399 81 381.332 80.0333 383.466 78.1C385.666 76.1667 386.866 73.4667 387.066 70H396.066C395.866 75.8667 393.832 80.5 389.966 83.9C386.099 87.3 380.999 89 374.666 89Z"/>
<path d="M440.227 88C435.493 88 431.793 86.7333 429.127 84.2C426.527 81.6667 425.227 78.1 425.227 73.5V41.2H409.727V33H425.227V17.5H434.227V33H456.227V41.2H434.227V73.5C434.227 77.7 436.227 79.8 440.227 79.8H455.227V88H440.227Z"/>
<path d="M492.487 88.8C488.754 88.8 485.488 88.2333 482.688 87.1C479.954 85.9 477.754 84.2333 476.087 82.1C474.487 79.9667 473.521 77.4333 473.188 74.5H482.188C482.587 76.4333 483.654 77.9667 485.388 79.1C487.188 80.2333 489.554 80.8 492.487 80.8H496.688C500.221 80.8 502.854 80.1 504.587 78.7C506.321 77.2333 507.188 75.3 507.188 72.9C507.188 70.5667 506.388 68.7333 504.788 67.4C503.254 66 500.954 65.0667 497.888 64.6L490.487 63.4C485.087 62.4667 481.054 60.8 478.388 58.4C475.788 55.9333 474.487 52.3667 474.487 47.7C474.487 42.7667 476.054 38.9667 479.188 36.3C482.321 33.5667 487.021 32.2 493.288 32.2H497.087C502.354 32.2 506.588 33.4333 509.788 35.9C512.988 38.3667 514.921 41.7 515.587 45.9H506.587C506.187 44.1667 505.187 42.8 503.587 41.8C501.987 40.7333 499.821 40.2 497.087 40.2H493.288C489.888 40.2 487.388 40.8333 485.788 42.1C484.254 43.3667 483.487 45.2667 483.487 47.8C483.487 50.0667 484.154 51.7333 485.487 52.8C486.821 53.8667 488.921 54.6333 491.788 55.1L499.188 56.3C505.121 57.2333 509.421 58.9667 512.087 61.5C514.821 64.0333 516.188 67.7 516.188 72.5C516.188 77.5667 514.554 81.5667 511.288 84.5C508.088 87.3667 503.221 88.8 496.688 88.8H492.487Z"/>
<path d="M539.148 99V91H554.648V13H539.148V5H563.648V99H539.148Z"/>
<path fill-rule="evenodd" clip-rule="evenodd" d="M302.905 86.4C306.171 88.1333 309.971 89 314.305 89C320.105 89 324.938 87.6667 328.805 85C332.738 82.2667 335.005 78.6 335.605 74H326.605C326.138 76.4667 324.838 78.3333 322.705 79.6C320.571 80.8 317.771 81.4 314.305 81.4C310.238 81.4 307.105 80.2667 304.905 78C302.705 75.6667 301.605 72.3333 301.605 68V62.7H335.805V53C335.805 48.7333 334.905 45.0333 333.105 41.9C331.371 38.7667 328.871 36.3333 325.605 34.6C322.405 32.8667 318.638 32 314.305 32C309.971 32 306.171 32.8667 302.905 34.6C299.705 36.3333 297.205 38.7667 295.405 41.9C293.671 45.0333 292.805 48.7333 292.805 53V68C292.805 72.2 293.671 75.9 295.405 79.1C297.205 82.2333 299.705 84.6667 302.905 86.4ZM323.705 43C325.905 45.3333 327.005 48.6667 327.005 53V55.9H301.605V53C301.605 48.6667 302.705 45.3333 304.905 43C307.105 40.6667 310.238 39.5 314.305 39.5C318.438 39.5 321.571 40.6667 323.705 43Z"/>
</mask>
<path d="M5 99V5H29.5V13H14V91H29.5V99H5Z" fill="white"/>
<path d="M53.6609 106V33H62.6609V43.5H64.4609L62.6609 45.6C62.6609 41.4 64.0276 38.1 66.7609 35.7C69.5609 33.2333 73.2276 32 77.7609 32C83.2943 32 87.6943 33.8333 90.9609 37.5C94.2943 41.1 95.9609 46.0667 95.9609 52.4V68.5C95.9609 72.7 95.1943 76.3333 93.6609 79.4C92.1943 82.4667 90.0943 84.8333 87.3609 86.5C84.6943 88.1667 81.4943 89 77.7609 89C73.2943 89 69.6609 87.7667 66.8609 85.3C64.0609 82.8333 62.6609 79.5333 62.6609 75.4L64.4609 77.5H62.4609L62.6609 90V106H53.6609ZM74.7609 81.2C78.5609 81.2 81.5276 80.0667 83.6609 77.8C85.8609 75.5333 86.9609 72.2667 86.9609 68V53C86.9609 48.7333 85.8609 45.4667 83.6609 43.2C81.5276 40.9333 78.5609 39.8 74.7609 39.8C71.0943 39.8 68.1609 40.9667 65.9609 43.3C63.7609 45.6333 62.6609 48.8667 62.6609 53V68C62.6609 72.1333 63.7609 75.3667 65.9609 77.7C68.1609 80.0333 71.0943 81.2 74.7609 81.2Z" fill="white"/>
<path d="M115.522 88V33H124.322V43.5H126.422L123.522 50C123.522 44.0667 124.789 39.6 127.322 36.6C129.922 33.5333 133.755 32 138.822 32C144.622 32 149.222 33.8333 152.622 37.5C156.089 41.1 157.822 46 157.822 52.2V55.5H148.822V53C148.822 48.6667 147.755 45.3667 145.622 43.1C143.555 40.7667 140.589 39.6 136.722 39.6C132.922 39.6 129.922 40.7667 127.722 43.1C125.589 45.4333 124.522 48.7333 124.522 53V88H115.522Z" fill="white"/>
<path d="M194.383 88.8C189.983 88.8 186.183 87.9667 182.983 86.3C179.783 84.6333 177.283 82.2333 175.483 79.1C173.749 75.9 172.883 72.1333 172.883 67.8V53.2C172.883 48.8 173.749 45.0333 175.483 41.9C177.283 38.7667 179.783 36.3667 182.983 34.7C186.183 33.0333 189.983 32.2 194.383 32.2C198.783 32.2 202.583 33.0333 205.783 34.7C208.983 36.3667 211.449 38.7667 213.183 41.9C214.983 45.0333 215.883 48.7667 215.883 53.1V67.8C215.883 72.1333 214.983 75.9 213.183 79.1C211.449 82.2333 208.983 84.6333 205.783 86.3C202.583 87.9667 198.783 88.8 194.383 88.8ZM194.383 80.8C198.316 80.8 201.383 79.7 203.583 77.5C205.783 75.3 206.883 72.0667 206.883 67.8V53.2C206.883 48.9333 205.783 45.7 203.583 43.5C201.383 41.3 198.316 40.2 194.383 40.2C190.516 40.2 187.449 41.3 185.183 43.5C182.983 45.7 181.883 48.9333 181.883 53.2V67.8C181.883 72.0667 182.983 75.3 185.183 77.5C187.449 79.7 190.516 80.8 194.383 80.8Z" fill="white"/>
<path d="M232.844 106V97.7H245.744C249.877 97.7 253.077 96.5667 255.344 94.3C257.677 92.1 258.844 88.9667 258.844 84.9V41.2H235.844V33H267.844V84.9C267.844 91.3667 265.844 96.5 261.844 100.3C257.844 104.1 252.477 106 245.744 106H232.844ZM262.844 23.1C260.644 23.1 258.91 22.5333 257.644 21.4C256.377 20.2667 255.744 18.7333 255.744 16.8C255.744 14.8 256.377 13.2333 257.644 12.1C258.91 10.9 260.644 10.3 262.844 10.3C265.044 10.3 266.777 10.9 268.044 12.1C269.31 13.2333 269.944 14.8 269.944 16.8C269.944 18.7333 269.31 20.2667 268.044 21.4C266.777 22.5333 265.044 23.1 262.844 23.1Z" fill="white"/>
<path d="M374.666 89C370.266 89 366.399 88.1667 363.066 86.5C359.799 84.8333 357.266 82.4333 355.466 79.3C353.666 76.1 352.766 72.3333 352.766 68V53C352.766 48.6 353.666 44.8333 355.466 41.7C357.266 38.5667 359.799 36.1667 363.066 34.5C366.399 32.8333 370.266 32 374.666 32C380.999 32 386.099 33.7 389.966 37.1C393.832 40.5 395.866 45.1333 396.066 51H387.066C386.866 47.4667 385.666 44.7667 383.466 42.9C381.332 40.9667 378.399 40 374.666 40C370.732 40 367.599 41.1333 365.266 43.4C362.932 45.6 361.766 48.7667 361.766 52.9V68C361.766 72.1333 362.932 75.3333 365.266 77.6C367.599 79.8667 370.732 81 374.666 81C378.399 81 381.332 80.0333 383.466 78.1C385.666 76.1667 386.866 73.4667 387.066 70H396.066C395.866 75.8667 393.832 80.5 389.966 83.9C386.099 87.3 380.999 89 374.666 89Z" fill="white"/>
<path d="M440.227 88C435.493 88 431.793 86.7333 429.127 84.2C426.527 81.6667 425.227 78.1 425.227 73.5V41.2H409.727V33H425.227V17.5H434.227V33H456.227V41.2H434.227V73.5C434.227 77.7 436.227 79.8 440.227 79.8H455.227V88H440.227Z" fill="white"/>
<path d="M492.487 88.8C488.754 88.8 485.488 88.2333 482.688 87.1C479.954 85.9 477.754 84.2333 476.087 82.1C474.487 79.9667 473.521 77.4333 473.188 74.5H482.188C482.587 76.4333 483.654 77.9667 485.388 79.1C487.188 80.2333 489.554 80.8 492.487 80.8H496.688C500.221 80.8 502.854 80.1 504.587 78.7C506.321 77.2333 507.188 75.3 507.188 72.9C507.188 70.5667 506.388 68.7333 504.788 67.4C503.254 66 500.954 65.0667 497.888 64.6L490.487 63.4C485.087 62.4667 481.054 60.8 478.388 58.4C475.788 55.9333 474.487 52.3667 474.487 47.7C474.487 42.7667 476.054 38.9667 479.188 36.3C482.321 33.5667 487.021 32.2 493.288 32.2H497.087C502.354 32.2 506.588 33.4333 509.788 35.9C512.988 38.3667 514.921 41.7 515.587 45.9H506.587C506.187 44.1667 505.187 42.8 503.587 41.8C501.987 40.7333 499.821 40.2 497.087 40.2H493.288C489.888 40.2 487.388 40.8333 485.788 42.1C484.254 43.3667 483.487 45.2667 483.487 47.8C483.487 50.0667 484.154 51.7333 485.487 52.8C486.821 53.8667 488.921 54.6333 491.788 55.1L499.188 56.3C505.121 57.2333 509.421 58.9667 512.087 61.5C514.821 64.0333 516.188 67.7 516.188 72.5C516.188 77.5667 514.554 81.5667 511.288 84.5C508.088 87.3667 503.221 88.8 496.688 88.8H492.487Z" fill="white"/>
<path d="M539.148 99V91H554.648V13H539.148V5H563.648V99H539.148Z" fill="white"/>
<path fill-rule="evenodd" clip-rule="evenodd" d="M302.905 86.4C306.171 88.1333 309.971 89 314.305 89C320.105 89 324.938 87.6667 328.805 85C332.738 82.2667 335.005 78.6 335.605 74H326.605C326.138 76.4667 324.838 78.3333 322.705 79.6C320.571 80.8 317.771 81.4 314.305 81.4C310.238 81.4 307.105 80.2667 304.905 78C302.705 75.6667 301.605 72.3333 301.605 68V62.7H335.805V53C335.805 48.7333 334.905 45.0333 333.105 41.9C331.371 38.7667 328.871 36.3333 325.605 34.6C322.405 32.8667 318.638 32 314.305 32C309.971 32 306.171 32.8667 302.905 34.6C299.705 36.3333 297.205 38.7667 295.405 41.9C293.671 45.0333 292.805 48.7333 292.805 53V68C292.805 72.2 293.671 75.9 295.405 79.1C297.205 82.2333 299.705 84.6667 302.905 86.4ZM323.705 43C325.905 45.3333 327.005 48.6667 327.005 53V55.9H301.605V53C301.605 48.6667 302.705 45.3333 304.905 43C307.105 40.6667 310.238 39.5 314.305 39.5C318.438 39.5 321.571 40.6667 323.705 43Z" fill="white"/>
<path d="M5 99V5H29.5V13H14V91H29.5V99H5Z" stroke="black" stroke-width="10" mask="url(#path-1-outside-1_19_21)"/>
<path d="M53.6609 106V33H62.6609V43.5H64.4609L62.6609 45.6C62.6609 41.4 64.0276 38.1 66.7609 35.7C69.5609 33.2333 73.2276 32 77.7609 32C83.2943 32 87.6943 33.8333 90.9609 37.5C94.2943 41.1 95.9609 46.0667 95.9609 52.4V68.5C95.9609 72.7 95.1943 76.3333 93.6609 79.4C92.1943 82.4667 90.0943 84.8333 87.3609 86.5C84.6943 88.1667 81.4943 89 77.7609 89C73.2943 89 69.6609 87.7667 66.8609 85.3C64.0609 82.8333 62.6609 79.5333 62.6609 75.4L64.4609 77.5H62.4609L62.6609 90V106H53.6609ZM74.7609 81.2C78.5609 81.2 81.5276 80.0667 83.6609 77.8C85.8609 75.5333 86.9609 72.2667 86.9609 68V53C86.9609 48.7333 85.8609 45.4667 83.6609 43.2C81.5276 40.9333 78.5609 39.8 74.7609 39.8C71.0943 39.8 68.1609 40.9667 65.9609 43.3C63.7609 45.6333 62.6609 48.8667 62.6609 53V68C62.6609 72.1333 63.7609 75.3667 65.9609 77.7C68.1609 80.0333 71.0943 81.2 74.7609 81.2Z" stroke="black" stroke-width="10" mask="url(#path-1-outside-1_19_21)"/>
<path d="M115.522 88V33H124.322V43.5H126.422L123.522 50C123.522 44.0667 124.789 39.6 127.322 36.6C129.922 33.5333 133.755 32 138.822 32C144.622 32 149.222 33.8333 152.622 37.5C156.089 41.1 157.822 46 157.822 52.2V55.5H148.822V53C148.822 48.6667 147.755 45.3667 145.622 43.1C143.555 40.7667 140.589 39.6 136.722 39.6C132.922 39.6 129.922 40.7667 127.722 43.1C125.589 45.4333 124.522 48.7333 124.522 53V88H115.522Z" stroke="black" stroke-width="10" mask="url(#path-1-outside-1_19_21)"/>
<path d="M194.383 88.8C189.983 88.8 186.183 87.9667 182.983 86.3C179.783 84.6333 177.283 82.2333 175.483 79.1C173.749 75.9 172.883 72.1333 172.883 67.8V53.2C172.883 48.8 173.749 45.0333 175.483 41.9C177.283 38.7667 179.783 36.3667 182.983 34.7C186.183 33.0333 189.983 32.2 194.383 32.2C198.783 32.2 202.583 33.0333 205.783 34.7C208.983 36.3667 211.449 38.7667 213.183 41.9C214.983 45.0333 215.883 48.7667 215.883 53.1V67.8C215.883 72.1333 214.983 75.9 213.183 79.1C211.449 82.2333 208.983 84.6333 205.783 86.3C202.583 87.9667 198.783 88.8 194.383 88.8ZM194.383 80.8C198.316 80.8 201.383 79.7 203.583 77.5C205.783 75.3 206.883 72.0667 206.883 67.8V53.2C206.883 48.9333 205.783 45.7 203.583 43.5C201.383 41.3 198.316 40.2 194.383 40.2C190.516 40.2 187.449 41.3 185.183 43.5C182.983 45.7 181.883 48.9333 181.883 53.2V67.8C181.883 72.0667 182.983 75.3 185.183 77.5C187.449 79.7 190.516 80.8 194.383 80.8Z" stroke="black" stroke-width="10" mask="url(#path-1-outside-1_19_21)"/>
<path d="M232.844 106V97.7H245.744C249.877 97.7 253.077 96.5667 255.344 94.3C257.677 92.1 258.844 88.9667 258.844 84.9V41.2H235.844V33H267.844V84.9C267.844 91.3667 265.844 96.5 261.844 100.3C257.844 104.1 252.477 106 245.744 106H232.844ZM262.844 23.1C260.644 23.1 258.91 22.5333 257.644 21.4C256.377 20.2667 255.744 18.7333 255.744 16.8C255.744 14.8 256.377 13.2333 257.644 12.1C258.91 10.9 260.644 10.3 262.844 10.3C265.044 10.3 266.777 10.9 268.044 12.1C269.31 13.2333 269.944 14.8 269.944 16.8C269.944 18.7333 269.31 20.2667 268.044 21.4C266.777 22.5333 265.044 23.1 262.844 23.1Z" stroke="black" stroke-width="10" mask="url(#path-1-outside-1_19_21)"/>
<path d="M374.666 89C370.266 89 366.399 88.1667 363.066 86.5C359.799 84.8333 357.266 82.4333 355.466 79.3C353.666 76.1 352.766 72.3333 352.766 68V53C352.766 48.6 353.666 44.8333 355.466 41.7C357.266 38.5667 359.799 36.1667 363.066 34.5C366.399 32.8333 370.266 32 374.666 32C380.999 32 386.099 33.7 389.966 37.1C393.832 40.5 395.866 45.1333 396.066 51H387.066C386.866 47.4667 385.666 44.7667 383.466 42.9C381.332 40.9667 378.399 40 374.666 40C370.732 40 367.599 41.1333 365.266 43.4C362.932 45.6 361.766 48.7667 361.766 52.9V68C361.766 72.1333 362.932 75.3333 365.266 77.6C367.599 79.8667 370.732 81 374.666 81C378.399 81 381.332 80.0333 383.466 78.1C385.666 76.1667 386.866 73.4667 387.066 70H396.066C395.866 75.8667 393.832 80.5 389.966 83.9C386.099 87.3 380.999 89 374.666 89Z" stroke="black" stroke-width="10" mask="url(#path-1-outside-1_19_21)"/>
<path d="M440.227 88C435.493 88 431.793 86.7333 429.127 84.2C426.527 81.6667 425.227 78.1 425.227 73.5V41.2H409.727V33H425.227V17.5H434.227V33H456.227V41.2H434.227V73.5C434.227 77.7 436.227 79.8 440.227 79.8H455.227V88H440.227Z" stroke="black" stroke-width="10" mask="url(#path-1-outside-1_19_21)"/>
<path d="M492.487 88.8C488.754 88.8 485.488 88.2333 482.688 87.1C479.954 85.9 477.754 84.2333 476.087 82.1C474.487 79.9667 473.521 77.4333 473.188 74.5H482.188C482.587 76.4333 483.654 77.9667 485.388 79.1C487.188 80.2333 489.554 80.8 492.487 80.8H496.688C500.221 80.8 502.854 80.1 504.587 78.7C506.321 77.2333 507.188 75.3 507.188 72.9C507.188 70.5667 506.388 68.7333 504.788 67.4C503.254 66 500.954 65.0667 497.888 64.6L490.487 63.4C485.087 62.4667 481.054 60.8 478.388 58.4C475.788 55.9333 474.487 52.3667 474.487 47.7C474.487 42.7667 476.054 38.9667 479.188 36.3C482.321 33.5667 487.021 32.2 493.288 32.2H497.087C502.354 32.2 506.588 33.4333 509.788 35.9C512.988 38.3667 514.921 41.7 515.587 45.9H506.587C506.187 44.1667 505.187 42.8 503.587 41.8C501.987 40.7333 499.821 40.2 497.087 40.2H493.288C489.888 40.2 487.388 40.8333 485.788 42.1C484.254 43.3667 483.487 45.2667 483.487 47.8C483.487 50.0667 484.154 51.7333 485.487 52.8C486.821 53.8667 488.921 54.6333 491.788 55.1L499.188 56.3C505.121 57.2333 509.421 58.9667 512.087 61.5C514.821 64.0333 516.188 67.7 516.188 72.5C516.188 77.5667 514.554 81.5667 511.288 84.5C508.088 87.3667 503.221 88.8 496.688 88.8H492.487Z" stroke="black" stroke-width="10" mask="url(#path-1-outside-1_19_21)"/>
<path d="M539.148 99V91H554.648V13H539.148V5H563.648V99H539.148Z" stroke="black" stroke-width="10" mask="url(#path-1-outside-1_19_21)"/>
<path fill-rule="evenodd" clip-rule="evenodd" d="M302.905 86.4C306.171 88.1333 309.971 89 314.305 89C320.105 89 324.938 87.6667 328.805 85C332.738 82.2667 335.005 78.6 335.605 74H326.605C326.138 76.4667 324.838 78.3333 322.705 79.6C320.571 80.8 317.771 81.4 314.305 81.4C310.238 81.4 307.105 80.2667 304.905 78C302.705 75.6667 301.605 72.3333 301.605 68V62.7H335.805V53C335.805 48.7333 334.905 45.0333 333.105 41.9C331.371 38.7667 328.871 36.3333 325.605 34.6C322.405 32.8667 318.638 32 314.305 32C309.971 32 306.171 32.8667 302.905 34.6C299.705 36.3333 297.205 38.7667 295.405 41.9C293.671 45.0333 292.805 48.7333 292.805 53V68C292.805 72.2 293.671 75.9 295.405 79.1C297.205 82.2333 299.705 84.6667 302.905 86.4ZM323.705 43C325.905 45.3333 327.005 48.6667 327.005 53V55.9H301.605V53C301.605 48.6667 302.705 45.3333 304.905 43C307.105 40.6667 310.238 39.5 314.305 39.5C318.438 39.5 321.571 40.6667 323.705 43Z" stroke="black" stroke-width="10" mask="url(#path-1-outside-1_19_21)"/>
</svg>
