<svg width="407" height="67" viewBox="0 0 407 67" fill="none" xmlns="http://www.w3.org/2000/svg">
<path d="M5.13581 0.950804V0H11.2286V0.950804H5.13581Z" fill="white"/>
<path d="M142.134 0.950804V0H148.226V0.950804H142.134Z" fill="white"/>
<path d="M256.298 0.950804V0H262.391V0.950804H256.298Z" fill="white"/>
<path d="M309.575 0.950804V0H315.668V0.950804H309.575Z" fill="white"/>
<path d="M355.241 0.950804V0H361.334V0.950804H355.241Z" fill="white"/>
<path d="M0 17.5582V5.64144H1.14239V17.5582H0Z" fill="white"/>
<path d="M15.222 17.5582V5.64144H16.3644V17.5582H15.222Z" fill="white"/>
<path d="M20.3578 17.4314V16.4806H26.4505V17.4314H20.3578Z" fill="white"/>
<path d="M35.5798 17.4314V16.4806H41.6725V17.4314H35.5798Z" fill="white"/>
<path d="M58.4127 17.4314V16.4806H64.5055V17.4314H58.4127Z" fill="white"/>
<path d="M73.6347 17.4314V16.4806H79.7275V17.4314H73.6347Z" fill="white"/>
<path d="M88.8517 17.4314V16.4806H102.56V17.4314H88.8517Z" fill="white"/>
<path d="M111.69 17.4314V16.4806H117.782V17.4314H111.69Z" fill="white"/>
<path d="M126.912 17.4314V16.4806H133.004V17.4314H126.912Z" fill="white"/>
<path d="M136.998 17.5582V5.64144H138.14V17.5582H136.998Z" fill="white"/>
<path d="M152.22 17.5582V5.64144H153.362V17.5582H152.22Z" fill="white"/>
<path d="M157.351 17.4314V16.4806H171.059V17.4314H157.351Z" fill="white"/>
<path d="M180.189 17.4314V16.4806H186.281V17.4314H180.189Z" fill="white"/>
<path d="M195.411 17.4314V16.4806H201.503V17.4314H195.411Z" fill="white"/>
<path d="M210.633 17.4314V16.4806H216.725V17.4314H210.633Z" fill="white"/>
<path d="M233.461 17.4314V16.4806H247.169V17.4314H233.461Z" fill="white"/>
<path d="M251.163 17.5582V5.64144H252.305V17.5582H251.163Z" fill="white"/>
<path d="M266.385 17.5582V5.64144H267.527V17.5582H266.385Z" fill="white"/>
<path d="M286.737 17.4314V16.4806H300.446V17.4314H286.737Z" fill="white"/>
<path d="M304.44 17.5582V5.64144H305.582V17.5582H304.44Z" fill="white"/>
<path d="M319.662 17.5582V5.64144H320.804V17.5582H319.662Z" fill="white"/>
<path d="M324.797 17.4314V16.4806H330.89V17.4314H324.797Z" fill="white"/>
<path d="M332.408 17.4314V16.4806H338.501V17.4314H332.408Z" fill="white"/>
<path d="M340.019 17.4314V16.4806H346.112V17.4314H340.019Z" fill="white"/>
<path d="M350.105 17.5582V5.64144H351.248V17.5582H350.105Z" fill="white"/>
<path d="M365.327 17.5582V5.64144H366.47V17.5582H365.327Z" fill="white"/>
<path d="M370.463 17.4314V16.4806H376.556V17.4314H370.463Z" fill="white"/>
<path d="M385.685 17.4314V16.4806H391.778V17.4314H385.685Z" fill="white"/>
<path d="M393.296 17.4314V16.4806H399.389V17.4314H393.296Z" fill="white"/>
<path d="M400.907 17.4314V16.4806H407V17.4314H400.907Z" fill="white"/>
<path d="M0 34.0388V22.122H1.14239V34.0388H0Z" fill="white"/>
<path d="M15.2601 27.193L15.1077 25.2914V23.3898H16.339V25.2914L16.1994 27.193H15.2601Z" fill="white"/>
<path d="M32.6653 34.0388L28.1592 22.122H29.365L33.8711 34.0388H32.6653Z" fill="white"/>
<path d="M52.5153 34.0388V22.122H53.6577V34.0388H52.5153ZM46.4226 34.0388V22.122H47.565V34.0388H46.4226Z" fill="white"/>
<path d="M68.4989 34.0388V22.122H69.6413V34.0388H68.4989Z" fill="white"/>
<path d="M83.759 27.193L83.6066 25.2914V23.3898H84.8379V25.2914L84.6983 27.193H83.759Z" fill="white"/>
<path d="M88.8567 33.912V32.9612H94.9494V33.912H88.8567Z" fill="white"/>
<path d="M108.775 34.0388L104.269 22.122H105.475L109.981 34.0388H108.775Z" fill="white"/>
<path d="M121.814 27.193L121.662 25.2914V23.3898H122.893V25.2914L122.753 27.193H121.814Z" fill="white"/>
<path d="M126.912 33.912V32.9612H133.004V33.912H126.912Z" fill="white"/>
<path d="M136.998 34.0388V22.122H138.14V34.0388H136.998Z" fill="white"/>
<path d="M149.935 34.0388L154.441 22.122H155.647L151.141 34.0388H149.935Z" fill="white"/>
<path d="M164.967 33.912V32.9612H171.059V33.912H164.967Z" fill="white"/>
<path d="M175.586 24.4674L174.126 22.6925H175.395L176.792 24.4674H175.586Z" fill="white"/>
<path d="M190.275 34.0388V22.122H191.417V34.0388H190.275Z" fill="white"/>
<path d="M205.535 27.193L205.382 25.2914V23.3898H206.614V25.2914L206.474 27.193H205.535Z" fill="white"/>
<path d="M222.94 34.0388L218.434 22.122H219.64L224.146 34.0388H222.94Z" fill="white"/>
<path d="M226.045 34.0388L230.551 22.122H231.757L227.251 34.0388H226.045Z" fill="white"/>
<path d="M241.076 33.912V32.9612H247.169V33.912H241.076Z" fill="white"/>
<path d="M251.696 24.4674L250.236 22.6925H251.505L252.902 24.4674H251.696Z" fill="white"/>
<path d="M266.385 34.0388V22.122H267.527V34.0388H266.385Z" fill="white"/>
<path d="M279.322 34.0388L283.828 22.122H285.034L280.528 34.0388H279.322Z" fill="white"/>
<path d="M294.353 33.912V32.9612H300.446V33.912H294.353Z" fill="white"/>
<path d="M304.973 24.4674L303.513 22.6925H304.782L306.179 24.4674H304.973Z" fill="white"/>
<path d="M317.377 34.0388L321.883 22.122H323.089L318.583 34.0388H317.377Z" fill="white"/>
<path d="M332.408 33.912V32.9612H338.501V33.912H332.408Z" fill="white"/>
<path d="M352.327 34.0388L347.821 22.122H349.027L353.533 34.0388H352.327Z" fill="white"/>
<path d="M370.463 33.912V32.9612H376.556V33.912H370.463Z" fill="white"/>
<path d="M383.469 34.1656C382.267 33.8698 381.332 33.2866 380.664 32.4161C379.995 31.5456 379.661 30.4807 379.661 29.2214V26.9395C379.661 26.1112 379.813 25.3632 380.118 24.6956C380.431 24.0194 380.871 23.4489 381.438 22.9841C382.013 22.5193 382.69 22.1897 383.469 21.9953V23.0728C382.927 23.1996 382.458 23.4447 382.06 23.8081C381.662 24.1631 381.353 24.6068 381.133 25.1393C380.913 25.6717 380.803 26.2718 380.803 26.9395V29.2214C380.803 29.8722 380.909 30.4638 381.121 30.9962C381.341 31.5287 381.65 31.9724 382.047 32.3273C382.453 32.6739 382.927 32.9105 383.469 33.0373V34.1656Z" fill="white"/>
<path d="M385.685 33.912V32.9612H391.778V33.912H385.685Z" fill="white"/>
<path d="M405.147 32.2006L402.608 28.9678H393.609V27.9536H402.608L405.159 24.7209H406.492L404.081 27.7508L403.497 28.4481L404.131 29.2214L406.492 32.2006H405.147Z" fill="white"/>
<path d="M0 50.5194V38.6026H1.14239V50.5194H0Z" fill="white"/>
<path d="M5.13581 50.3926V49.4418H11.2286V50.3926H5.13581Z" fill="white"/>
<path d="M22.0714 50.5194V38.6026H23.2138V50.5194H22.0714ZM15.9786 50.5194V38.6026H17.121V50.5194H15.9786Z" fill="white"/>
<path d="M27.9688 50.3926V49.4418H34.0615V50.3926H27.9688Z" fill="white"/>
<path d="M40.2763 50.5194L35.7702 38.6026H36.976L41.4821 50.5194H40.2763Z" fill="white"/>
<path d="M43.1907 50.3926V49.4418H49.2835V50.3926H43.1907Z" fill="white"/>
<path d="M52.1345 51.1533L53.15 47.2106H54.8001L53.15 51.1533H52.1345Z" fill="white"/>
<path d="M68.4989 50.5194V38.6026H69.6413V50.5194H68.4989Z" fill="white"/>
<path d="M84.2921 49.2517C83.9705 49.2517 83.7124 49.1587 83.5178 48.9728C83.3316 48.7868 83.2385 48.5375 83.2385 48.2248C83.2385 47.8952 83.3316 47.6332 83.5178 47.4388C83.7124 47.2444 83.9705 47.1472 84.2921 47.1472C84.6136 47.1472 84.8675 47.2444 85.0537 47.4388C85.2483 47.6332 85.3456 47.8952 85.3456 48.2248C85.3456 48.5375 85.2483 48.7868 85.0537 48.9728C84.8675 49.1587 84.6136 49.2517 84.2921 49.2517Z" fill="white"/>
<path d="M88.8517 50.3926V49.4418H102.56V50.3926H88.8517Z" fill="white"/>
<path d="M104.269 50.5194L108.775 38.6026H109.981L105.475 50.5194H104.269Z" fill="white"/>
<path d="M111.69 50.3926V49.4418H117.782V50.3926H111.69Z" fill="white"/>
<path d="M121.776 50.5194V38.6026H122.918V50.5194H121.776Z" fill="white"/>
<path d="M136.998 50.5194V38.6026H138.14V50.5194H136.998Z" fill="white"/>
<path d="M142.134 50.3926V49.4418H148.226V50.3926H142.134Z" fill="white"/>
<path d="M154.441 50.5194L149.935 38.6026H151.141L155.647 50.5194H154.441Z" fill="white"/>
<path d="M157.351 50.3926V49.4418H171.059V50.3926H157.351Z" fill="white"/>
<path d="M173.91 51.1533L174.926 47.2106H176.576L174.926 51.1533H173.91Z" fill="white"/>
<path d="M182.083 50.3926V49.4418H190.27V39.6168H191.412V49.4418H199.599V50.3926H182.083Z" fill="white"/>
<path d="M212.346 50.5194V38.6026H213.488V50.5194H212.346ZM206.253 50.5194V38.6026H207.396V50.5194H206.253Z" fill="white"/>
<path d="M218.244 50.3926V49.4418H224.336V50.3926H218.244Z" fill="white"/>
<path d="M230.551 50.5194L226.045 38.6026H227.251L231.757 50.5194H230.551Z" fill="white"/>
<path d="M233.461 50.3926V49.4418H247.169V50.3926H233.461Z" fill="white"/>
<path d="M250.02 51.1533L251.036 47.2106H252.686L251.036 51.1533H250.02Z" fill="white"/>
<path d="M256.298 50.3926V49.4418H262.391V50.3926H256.298Z" fill="white"/>
<path d="M266.385 50.5194V38.6026H267.527V50.5194H266.385Z" fill="white"/>
<path d="M283.828 50.5194L279.322 38.6026H280.528L285.034 50.5194H283.828Z" fill="white"/>
<path d="M286.737 50.3926V49.4418H300.446V50.3926H286.737Z" fill="white"/>
<path d="M303.297 51.1533L304.313 47.2106H305.963L304.313 51.1533H303.297Z" fill="white"/>
<path d="M309.575 50.3926V49.4418H315.668V50.3926H309.575Z" fill="white"/>
<path d="M321.883 50.5194L317.377 38.6026H318.583L323.089 50.5194H321.883Z" fill="white"/>
<path d="M324.797 50.3926V49.4418H330.89V50.3926H324.797Z" fill="white"/>
<path d="M332.408 50.3926V49.4418H338.501V50.3926H332.408Z" fill="white"/>
<path d="M340.019 50.3926V49.4418H346.112V50.3926H340.019Z" fill="white"/>
<path d="M347.821 50.5194L352.327 38.6026H353.533L349.027 50.5194H347.821Z" fill="white"/>
<path d="M359.938 50.5194L355.432 38.6026H356.638L361.144 50.5194H359.938Z" fill="white"/>
<path d="M362.847 50.3926V49.4418H376.556V50.3926H362.847Z" fill="white"/>
<path d="M378.265 50.5194L382.771 38.6026H383.977L379.471 50.5194H378.265Z" fill="white"/>
<path d="M385.68 50.3926V49.4418H399.389V50.3926H385.68Z" fill="white"/>
<path d="M401.098 50.5194L405.604 38.6026H406.81L402.303 50.5194H401.098Z" fill="white"/>
<path d="M38.0549 67V55.0833H39.1973V67H38.0549Z" fill="white"/>
<path d="M43.1858 66.8732V65.9224H56.8945V66.8732H43.1858Z" fill="white"/>
<path d="M58.6031 67L63.1092 55.0833H64.3151L59.809 67H58.6031Z" fill="white"/>
<path d="M68.4989 67V55.0833H69.6413V67H68.4989Z" fill="white"/>
<path d="M73.6347 66.8732V65.9224H79.7275V66.8732H73.6347Z" fill="white"/>
<path d="M83.7209 67V55.0833H84.8633V67H83.7209Z" fill="white"/>
</svg>
