<svg width="409" height="69" viewBox="0 0 409 69" fill="none" xmlns="http://www.w3.org/2000/svg">
<path d="M6.13581 1.9508V1H12.2286V1.9508H6.13581Z" fill="white"/>
<path d="M143.134 1.9508V1H149.226V1.9508H143.134Z" fill="white"/>
<path d="M257.298 1.9508V1H263.391V1.9508H257.298Z" fill="white"/>
<path d="M310.575 1.9508V1H316.668V1.9508H310.575Z" fill="white"/>
<path d="M356.241 1.9508V1H362.334V1.9508H356.241Z" fill="white"/>
<path d="M1 18.5582V6.64144H2.14239V18.5582H1Z" fill="white"/>
<path d="M16.222 18.5582V6.64144H17.3644V18.5582H16.222Z" fill="white"/>
<path d="M21.3578 18.4314V17.4806H27.4505V18.4314H21.3578Z" fill="white"/>
<path d="M36.5798 18.4314V17.4806H42.6725V18.4314H36.5798Z" fill="white"/>
<path d="M59.4127 18.4314V17.4806H65.5055V18.4314H59.4127Z" fill="white"/>
<path d="M74.6347 18.4314V17.4806H80.7275V18.4314H74.6347Z" fill="white"/>
<path d="M89.8517 18.4314V17.4806H103.56V18.4314H89.8517Z" fill="white"/>
<path d="M112.69 18.4314V17.4806H118.782V18.4314H112.69Z" fill="white"/>
<path d="M127.912 18.4314V17.4806H134.004V18.4314H127.912Z" fill="white"/>
<path d="M137.998 18.5582V6.64144H139.14V18.5582H137.998Z" fill="white"/>
<path d="M153.22 18.5582V6.64144H154.362V18.5582H153.22Z" fill="white"/>
<path d="M158.351 18.4314V17.4806H172.059V18.4314H158.351Z" fill="white"/>
<path d="M181.189 18.4314V17.4806H187.281V18.4314H181.189Z" fill="white"/>
<path d="M196.411 18.4314V17.4806H202.503V18.4314H196.411Z" fill="white"/>
<path d="M211.633 18.4314V17.4806H217.725V18.4314H211.633Z" fill="white"/>
<path d="M234.461 18.4314V17.4806H248.169V18.4314H234.461Z" fill="white"/>
<path d="M252.163 18.5582V6.64144H253.305V18.5582H252.163Z" fill="white"/>
<path d="M267.385 18.5582V6.64144H268.527V18.5582H267.385Z" fill="white"/>
<path d="M287.737 18.4314V17.4806H301.446V18.4314H287.737Z" fill="white"/>
<path d="M305.44 18.5582V6.64144H306.582V18.5582H305.44Z" fill="white"/>
<path d="M320.662 18.5582V6.64144H321.804V18.5582H320.662Z" fill="white"/>
<path d="M325.797 18.4314V17.4806H331.89V18.4314H325.797Z" fill="white"/>
<path d="M333.408 18.4314V17.4806H339.501V18.4314H333.408Z" fill="white"/>
<path d="M341.019 18.4314V17.4806H347.112V18.4314H341.019Z" fill="white"/>
<path d="M351.105 18.5582V6.64144H352.248V18.5582H351.105Z" fill="white"/>
<path d="M366.327 18.5582V6.64144H367.47V18.5582H366.327Z" fill="white"/>
<path d="M371.463 18.4314V17.4806H377.556V18.4314H371.463Z" fill="white"/>
<path d="M386.685 18.4314V17.4806H392.778V18.4314H386.685Z" fill="white"/>
<path d="M394.296 18.4314V17.4806H400.389V18.4314H394.296Z" fill="white"/>
<path d="M401.907 18.4314V17.4806H408V18.4314H401.907Z" fill="white"/>
<path d="M1 35.0388V23.122H2.14239V35.0388H1Z" fill="white"/>
<path d="M16.2601 28.193L16.1077 26.2914V24.3898H17.339V26.2914L17.1994 28.193H16.2601Z" fill="white"/>
<path d="M33.6653 35.0388L29.1592 23.122H30.365L34.8711 35.0388H33.6653Z" fill="white"/>
<path d="M53.5153 35.0388V23.122H54.6577V35.0388H53.5153ZM47.4226 35.0388V23.122H48.565V35.0388H47.4226Z" fill="white"/>
<path d="M69.4989 35.0388V23.122H70.6413V35.0388H69.4989Z" fill="white"/>
<path d="M84.759 28.193L84.6066 26.2914V24.3898H85.8379V26.2914L85.6983 28.193H84.759Z" fill="white"/>
<path d="M89.8567 34.912V33.9612H95.9494V34.912H89.8567Z" fill="white"/>
<path d="M109.775 35.0388L105.269 23.122H106.475L110.981 35.0388H109.775Z" fill="white"/>
<path d="M122.814 28.193L122.662 26.2914V24.3898H123.893V26.2914L123.753 28.193H122.814Z" fill="white"/>
<path d="M127.912 34.912V33.9612H134.004V34.912H127.912Z" fill="white"/>
<path d="M137.998 35.0388V23.122H139.14V35.0388H137.998Z" fill="white"/>
<path d="M150.935 35.0388L155.441 23.122H156.647L152.141 35.0388H150.935Z" fill="white"/>
<path d="M165.967 34.912V33.9612H172.059V34.912H165.967Z" fill="white"/>
<path d="M176.586 25.4674L175.126 23.6925H176.395L177.792 25.4674H176.586Z" fill="white"/>
<path d="M191.275 35.0388V23.122H192.417V35.0388H191.275Z" fill="white"/>
<path d="M206.535 28.193L206.382 26.2914V24.3898H207.614V26.2914L207.474 28.193H206.535Z" fill="white"/>
<path d="M223.94 35.0388L219.434 23.122H220.64L225.146 35.0388H223.94Z" fill="white"/>
<path d="M227.045 35.0388L231.551 23.122H232.757L228.251 35.0388H227.045Z" fill="white"/>
<path d="M242.076 34.912V33.9612H248.169V34.912H242.076Z" fill="white"/>
<path d="M252.696 25.4674L251.236 23.6925H252.505L253.902 25.4674H252.696Z" fill="white"/>
<path d="M267.385 35.0388V23.122H268.527V35.0388H267.385Z" fill="white"/>
<path d="M280.322 35.0388L284.828 23.122H286.034L281.528 35.0388H280.322Z" fill="white"/>
<path d="M295.353 34.912V33.9612H301.446V34.912H295.353Z" fill="white"/>
<path d="M305.973 25.4674L304.513 23.6925H305.782L307.179 25.4674H305.973Z" fill="white"/>
<path d="M318.377 35.0388L322.883 23.122H324.089L319.583 35.0388H318.377Z" fill="white"/>
<path d="M333.408 34.912V33.9612H339.501V34.912H333.408Z" fill="white"/>
<path d="M353.327 35.0388L348.821 23.122H350.027L354.533 35.0388H353.327Z" fill="white"/>
<path d="M371.463 34.912V33.9612H377.556V34.912H371.463Z" fill="white"/>
<path d="M384.469 35.1656C383.267 34.8698 382.332 34.2866 381.664 33.4161C380.995 32.5456 380.661 31.4807 380.661 30.2214V27.9395C380.661 27.1112 380.813 26.3632 381.118 25.6956C381.431 25.0194 381.871 24.4489 382.438 23.9841C383.013 23.5193 383.69 23.1897 384.469 22.9953V24.0728C383.927 24.1996 383.458 24.4447 383.06 24.8081C382.662 25.1631 382.353 25.6068 382.133 26.1393C381.913 26.6717 381.803 27.2718 381.803 27.9395V30.2214C381.803 30.8722 381.909 31.4638 382.121 31.9962C382.341 32.5287 382.65 32.9724 383.047 33.3273C383.453 33.6739 383.927 33.9105 384.469 34.0373V35.1656Z" fill="white"/>
<path d="M386.685 34.912V33.9612H392.778V34.912H386.685Z" fill="white"/>
<path d="M406.147 33.2006L403.608 29.9678H394.609V28.9536H403.608L406.159 25.7209H407.492L405.081 28.7508L404.497 29.4481L405.131 30.2214L407.492 33.2006H406.147Z" fill="white"/>
<path d="M1 51.5194V39.6026H2.14239V51.5194H1Z" fill="white"/>
<path d="M6.13581 51.3926V50.4418H12.2286V51.3926H6.13581Z" fill="white"/>
<path d="M23.0714 51.5194V39.6026H24.2138V51.5194H23.0714ZM16.9786 51.5194V39.6026H18.121V51.5194H16.9786Z" fill="white"/>
<path d="M28.9688 51.3926V50.4418H35.0615V51.3926H28.9688Z" fill="white"/>
<path d="M41.2763 51.5194L36.7702 39.6026H37.976L42.4821 51.5194H41.2763Z" fill="white"/>
<path d="M44.1907 51.3926V50.4418H50.2835V51.3926H44.1907Z" fill="white"/>
<path d="M53.1345 52.1533L54.15 48.2106H55.8001L54.15 52.1533H53.1345Z" fill="white"/>
<path d="M69.4989 51.5194V39.6026H70.6413V51.5194H69.4989Z" fill="white"/>
<path d="M85.2921 50.2517C84.9705 50.2517 84.7124 50.1587 84.5178 49.9728C84.3316 49.7868 84.2385 49.5375 84.2385 49.2248C84.2385 48.8952 84.3316 48.6332 84.5178 48.4388C84.7124 48.2444 84.9705 48.1472 85.2921 48.1472C85.6136 48.1472 85.8675 48.2444 86.0537 48.4388C86.2483 48.6332 86.3456 48.8952 86.3456 49.2248C86.3456 49.5375 86.2483 49.7868 86.0537 49.9728C85.8675 50.1587 85.6136 50.2517 85.2921 50.2517Z" fill="white"/>
<path d="M89.8517 51.3926V50.4418H103.56V51.3926H89.8517Z" fill="white"/>
<path d="M105.269 51.5194L109.775 39.6026H110.981L106.475 51.5194H105.269Z" fill="white"/>
<path d="M112.69 51.3926V50.4418H118.782V51.3926H112.69Z" fill="white"/>
<path d="M122.776 51.5194V39.6026H123.918V51.5194H122.776Z" fill="white"/>
<path d="M137.998 51.5194V39.6026H139.14V51.5194H137.998Z" fill="white"/>
<path d="M143.134 51.3926V50.4418H149.226V51.3926H143.134Z" fill="white"/>
<path d="M155.441 51.5194L150.935 39.6026H152.141L156.647 51.5194H155.441Z" fill="white"/>
<path d="M158.351 51.3926V50.4418H172.059V51.3926H158.351Z" fill="white"/>
<path d="M174.91 52.1533L175.926 48.2106H177.576L175.926 52.1533H174.91Z" fill="white"/>
<path d="M183.083 51.3926V50.4418H191.27V40.6168H192.412V50.4418H200.599V51.3926H183.083Z" fill="white"/>
<path d="M213.346 51.5194V39.6026H214.488V51.5194H213.346ZM207.253 51.5194V39.6026H208.396V51.5194H207.253Z" fill="white"/>
<path d="M219.244 51.3926V50.4418H225.336V51.3926H219.244Z" fill="white"/>
<path d="M231.551 51.5194L227.045 39.6026H228.251L232.757 51.5194H231.551Z" fill="white"/>
<path d="M234.461 51.3926V50.4418H248.169V51.3926H234.461Z" fill="white"/>
<path d="M251.02 52.1533L252.036 48.2106H253.686L252.036 52.1533H251.02Z" fill="white"/>
<path d="M257.298 51.3926V50.4418H263.391V51.3926H257.298Z" fill="white"/>
<path d="M267.385 51.5194V39.6026H268.527V51.5194H267.385Z" fill="white"/>
<path d="M284.828 51.5194L280.322 39.6026H281.528L286.034 51.5194H284.828Z" fill="white"/>
<path d="M287.737 51.3926V50.4418H301.446V51.3926H287.737Z" fill="white"/>
<path d="M304.297 52.1533L305.313 48.2106H306.963L305.313 52.1533H304.297Z" fill="white"/>
<path d="M310.575 51.3926V50.4418H316.668V51.3926H310.575Z" fill="white"/>
<path d="M322.883 51.5194L318.377 39.6026H319.583L324.089 51.5194H322.883Z" fill="white"/>
<path d="M325.797 51.3926V50.4418H331.89V51.3926H325.797Z" fill="white"/>
<path d="M333.408 51.3926V50.4418H339.501V51.3926H333.408Z" fill="white"/>
<path d="M341.019 51.3926V50.4418H347.112V51.3926H341.019Z" fill="white"/>
<path d="M348.821 51.5194L353.327 39.6026H354.533L350.027 51.5194H348.821Z" fill="white"/>
<path d="M360.938 51.5194L356.432 39.6026H357.638L362.144 51.5194H360.938Z" fill="white"/>
<path d="M363.847 51.3926V50.4418H377.556V51.3926H363.847Z" fill="white"/>
<path d="M379.265 51.5194L383.771 39.6026H384.977L380.471 51.5194H379.265Z" fill="white"/>
<path d="M386.68 51.3926V50.4418H400.389V51.3926H386.68Z" fill="white"/>
<path d="M402.098 51.5194L406.604 39.6026H407.81L403.303 51.5194H402.098Z" fill="white"/>
<path d="M39.0549 68V56.0833H40.1973V68H39.0549Z" fill="white"/>
<path d="M44.1858 67.8732V66.9224H57.8945V67.8732H44.1858Z" fill="white"/>
<path d="M59.6031 68L64.1092 56.0833H65.3151L60.809 68H59.6031Z" fill="white"/>
<path d="M69.4989 68V56.0833H70.6413V68H69.4989Z" fill="white"/>
<path d="M74.6347 67.8732V66.9224H80.7275V67.8732H74.6347Z" fill="white"/>
<path d="M84.7209 68V56.0833H85.8633V68H84.7209Z" fill="white"/>
<path d="M6.13581 1.9508V1H12.2286V1.9508H6.13581Z" stroke="white"/>
<path d="M143.134 1.9508V1H149.226V1.9508H143.134Z" stroke="white"/>
<path d="M257.298 1.9508V1H263.391V1.9508H257.298Z" stroke="white"/>
<path d="M310.575 1.9508V1H316.668V1.9508H310.575Z" stroke="white"/>
<path d="M356.241 1.9508V1H362.334V1.9508H356.241Z" stroke="white"/>
<path d="M1 18.5582V6.64144H2.14239V18.5582H1Z" stroke="white"/>
<path d="M16.222 18.5582V6.64144H17.3644V18.5582H16.222Z" stroke="white"/>
<path d="M21.3578 18.4314V17.4806H27.4505V18.4314H21.3578Z" stroke="white"/>
<path d="M36.5798 18.4314V17.4806H42.6725V18.4314H36.5798Z" stroke="white"/>
<path d="M59.4127 18.4314V17.4806H65.5055V18.4314H59.4127Z" stroke="white"/>
<path d="M74.6347 18.4314V17.4806H80.7275V18.4314H74.6347Z" stroke="white"/>
<path d="M89.8517 18.4314V17.4806H103.56V18.4314H89.8517Z" stroke="white"/>
<path d="M112.69 18.4314V17.4806H118.782V18.4314H112.69Z" stroke="white"/>
<path d="M127.912 18.4314V17.4806H134.004V18.4314H127.912Z" stroke="white"/>
<path d="M137.998 18.5582V6.64144H139.14V18.5582H137.998Z" stroke="white"/>
<path d="M153.22 18.5582V6.64144H154.362V18.5582H153.22Z" stroke="white"/>
<path d="M158.351 18.4314V17.4806H172.059V18.4314H158.351Z" stroke="white"/>
<path d="M181.189 18.4314V17.4806H187.281V18.4314H181.189Z" stroke="white"/>
<path d="M196.411 18.4314V17.4806H202.503V18.4314H196.411Z" stroke="white"/>
<path d="M211.633 18.4314V17.4806H217.725V18.4314H211.633Z" stroke="white"/>
<path d="M234.461 18.4314V17.4806H248.169V18.4314H234.461Z" stroke="white"/>
<path d="M252.163 18.5582V6.64144H253.305V18.5582H252.163Z" stroke="white"/>
<path d="M267.385 18.5582V6.64144H268.527V18.5582H267.385Z" stroke="white"/>
<path d="M287.737 18.4314V17.4806H301.446V18.4314H287.737Z" stroke="white"/>
<path d="M305.44 18.5582V6.64144H306.582V18.5582H305.44Z" stroke="white"/>
<path d="M320.662 18.5582V6.64144H321.804V18.5582H320.662Z" stroke="white"/>
<path d="M325.797 18.4314V17.4806H331.89V18.4314H325.797Z" stroke="white"/>
<path d="M333.408 18.4314V17.4806H339.501V18.4314H333.408Z" stroke="white"/>
<path d="M341.019 18.4314V17.4806H347.112V18.4314H341.019Z" stroke="white"/>
<path d="M351.105 18.5582V6.64144H352.248V18.5582H351.105Z" stroke="white"/>
<path d="M366.327 18.5582V6.64144H367.47V18.5582H366.327Z" stroke="white"/>
<path d="M371.463 18.4314V17.4806H377.556V18.4314H371.463Z" stroke="white"/>
<path d="M386.685 18.4314V17.4806H392.778V18.4314H386.685Z" stroke="white"/>
<path d="M394.296 18.4314V17.4806H400.389V18.4314H394.296Z" stroke="white"/>
<path d="M401.907 18.4314V17.4806H408V18.4314H401.907Z" stroke="white"/>
<path d="M1 35.0388V23.122H2.14239V35.0388H1Z" stroke="white"/>
<path d="M16.2601 28.193L16.1077 26.2914V24.3898H17.339V26.2914L17.1994 28.193H16.2601Z" stroke="white"/>
<path d="M33.6653 35.0388L29.1592 23.122H30.365L34.8711 35.0388H33.6653Z" stroke="white"/>
<path d="M53.5153 35.0388V23.122H54.6577V35.0388H53.5153ZM47.4226 35.0388V23.122H48.565V35.0388H47.4226Z" stroke="white"/>
<path d="M69.4989 35.0388V23.122H70.6413V35.0388H69.4989Z" stroke="white"/>
<path d="M84.759 28.193L84.6066 26.2914V24.3898H85.8379V26.2914L85.6983 28.193H84.759Z" stroke="white"/>
<path d="M89.8567 34.912V33.9612H95.9494V34.912H89.8567Z" stroke="white"/>
<path d="M109.775 35.0388L105.269 23.122H106.475L110.981 35.0388H109.775Z" stroke="white"/>
<path d="M122.814 28.193L122.662 26.2914V24.3898H123.893V26.2914L123.753 28.193H122.814Z" stroke="white"/>
<path d="M127.912 34.912V33.9612H134.004V34.912H127.912Z" stroke="white"/>
<path d="M137.998 35.0388V23.122H139.14V35.0388H137.998Z" stroke="white"/>
<path d="M150.935 35.0388L155.441 23.122H156.647L152.141 35.0388H150.935Z" stroke="white"/>
<path d="M165.967 34.912V33.9612H172.059V34.912H165.967Z" stroke="white"/>
<path d="M176.586 25.4674L175.126 23.6925H176.395L177.792 25.4674H176.586Z" stroke="white"/>
<path d="M191.275 35.0388V23.122H192.417V35.0388H191.275Z" stroke="white"/>
<path d="M206.535 28.193L206.382 26.2914V24.3898H207.614V26.2914L207.474 28.193H206.535Z" stroke="white"/>
<path d="M223.94 35.0388L219.434 23.122H220.64L225.146 35.0388H223.94Z" stroke="white"/>
<path d="M227.045 35.0388L231.551 23.122H232.757L228.251 35.0388H227.045Z" stroke="white"/>
<path d="M242.076 34.912V33.9612H248.169V34.912H242.076Z" stroke="white"/>
<path d="M252.696 25.4674L251.236 23.6925H252.505L253.902 25.4674H252.696Z" stroke="white"/>
<path d="M267.385 35.0388V23.122H268.527V35.0388H267.385Z" stroke="white"/>
<path d="M280.322 35.0388L284.828 23.122H286.034L281.528 35.0388H280.322Z" stroke="white"/>
<path d="M295.353 34.912V33.9612H301.446V34.912H295.353Z" stroke="white"/>
<path d="M305.973 25.4674L304.513 23.6925H305.782L307.179 25.4674H305.973Z" stroke="white"/>
<path d="M318.377 35.0388L322.883 23.122H324.089L319.583 35.0388H318.377Z" stroke="white"/>
<path d="M333.408 34.912V33.9612H339.501V34.912H333.408Z" stroke="white"/>
<path d="M353.327 35.0388L348.821 23.122H350.027L354.533 35.0388H353.327Z" stroke="white"/>
<path d="M371.463 34.912V33.9612H377.556V34.912H371.463Z" stroke="white"/>
<path d="M384.469 35.1656C383.267 34.8698 382.332 34.2866 381.664 33.4161C380.995 32.5456 380.661 31.4807 380.661 30.2214V27.9395C380.661 27.1112 380.813 26.3632 381.118 25.6956C381.431 25.0194 381.871 24.4489 382.438 23.9841C383.013 23.5193 383.69 23.1897 384.469 22.9953V24.0728C383.927 24.1996 383.458 24.4447 383.06 24.8081C382.662 25.1631 382.353 25.6068 382.133 26.1393C381.913 26.6717 381.803 27.2718 381.803 27.9395V30.2214C381.803 30.8722 381.909 31.4638 382.121 31.9962C382.341 32.5287 382.65 32.9724 383.047 33.3273C383.453 33.6739 383.927 33.9105 384.469 34.0373V35.1656Z" stroke="white"/>
<path d="M386.685 34.912V33.9612H392.778V34.912H386.685Z" stroke="white"/>
<path d="M406.147 33.2006L403.608 29.9678H394.609V28.9536H403.608L406.159 25.7209H407.492L405.081 28.7508L404.497 29.4481L405.131 30.2214L407.492 33.2006H406.147Z" stroke="white"/>
<path d="M1 51.5194V39.6026H2.14239V51.5194H1Z" stroke="white"/>
<path d="M6.13581 51.3926V50.4418H12.2286V51.3926H6.13581Z" stroke="white"/>
<path d="M23.0714 51.5194V39.6026H24.2138V51.5194H23.0714ZM16.9786 51.5194V39.6026H18.121V51.5194H16.9786Z" stroke="white"/>
<path d="M28.9688 51.3926V50.4418H35.0615V51.3926H28.9688Z" stroke="white"/>
<path d="M41.2763 51.5194L36.7702 39.6026H37.976L42.4821 51.5194H41.2763Z" stroke="white"/>
<path d="M44.1907 51.3926V50.4418H50.2835V51.3926H44.1907Z" stroke="white"/>
<path d="M53.1345 52.1533L54.15 48.2106H55.8001L54.15 52.1533H53.1345Z" stroke="white"/>
<path d="M69.4989 51.5194V39.6026H70.6413V51.5194H69.4989Z" stroke="white"/>
<path d="M85.2921 50.2517C84.9705 50.2517 84.7124 50.1587 84.5178 49.9728C84.3316 49.7868 84.2385 49.5375 84.2385 49.2248C84.2385 48.8952 84.3316 48.6332 84.5178 48.4388C84.7124 48.2444 84.9705 48.1472 85.2921 48.1472C85.6136 48.1472 85.8675 48.2444 86.0537 48.4388C86.2483 48.6332 86.3456 48.8952 86.3456 49.2248C86.3456 49.5375 86.2483 49.7868 86.0537 49.9728C85.8675 50.1587 85.6136 50.2517 85.2921 50.2517Z" stroke="white"/>
<path d="M89.8517 51.3926V50.4418H103.56V51.3926H89.8517Z" stroke="white"/>
<path d="M105.269 51.5194L109.775 39.6026H110.981L106.475 51.5194H105.269Z" stroke="white"/>
<path d="M112.69 51.3926V50.4418H118.782V51.3926H112.69Z" stroke="white"/>
<path d="M122.776 51.5194V39.6026H123.918V51.5194H122.776Z" stroke="white"/>
<path d="M137.998 51.5194V39.6026H139.14V51.5194H137.998Z" stroke="white"/>
<path d="M143.134 51.3926V50.4418H149.226V51.3926H143.134Z" stroke="white"/>
<path d="M155.441 51.5194L150.935 39.6026H152.141L156.647 51.5194H155.441Z" stroke="white"/>
<path d="M158.351 51.3926V50.4418H172.059V51.3926H158.351Z" stroke="white"/>
<path d="M174.91 52.1533L175.926 48.2106H177.576L175.926 52.1533H174.91Z" stroke="white"/>
<path d="M183.083 51.3926V50.4418H191.27V40.6168H192.412V50.4418H200.599V51.3926H183.083Z" stroke="white"/>
<path d="M213.346 51.5194V39.6026H214.488V51.5194H213.346ZM207.253 51.5194V39.6026H208.396V51.5194H207.253Z" stroke="white"/>
<path d="M219.244 51.3926V50.4418H225.336V51.3926H219.244Z" stroke="white"/>
<path d="M231.551 51.5194L227.045 39.6026H228.251L232.757 51.5194H231.551Z" stroke="white"/>
<path d="M234.461 51.3926V50.4418H248.169V51.3926H234.461Z" stroke="white"/>
<path d="M251.02 52.1533L252.036 48.2106H253.686L252.036 52.1533H251.02Z" stroke="white"/>
<path d="M257.298 51.3926V50.4418H263.391V51.3926H257.298Z" stroke="white"/>
<path d="M267.385 51.5194V39.6026H268.527V51.5194H267.385Z" stroke="white"/>
<path d="M284.828 51.5194L280.322 39.6026H281.528L286.034 51.5194H284.828Z" stroke="white"/>
<path d="M287.737 51.3926V50.4418H301.446V51.3926H287.737Z" stroke="white"/>
<path d="M304.297 52.1533L305.313 48.2106H306.963L305.313 52.1533H304.297Z" stroke="white"/>
<path d="M310.575 51.3926V50.4418H316.668V51.3926H310.575Z" stroke="white"/>
<path d="M322.883 51.5194L318.377 39.6026H319.583L324.089 51.5194H322.883Z" stroke="white"/>
<path d="M325.797 51.3926V50.4418H331.89V51.3926H325.797Z" stroke="white"/>
<path d="M333.408 51.3926V50.4418H339.501V51.3926H333.408Z" stroke="white"/>
<path d="M341.019 51.3926V50.4418H347.112V51.3926H341.019Z" stroke="white"/>
<path d="M348.821 51.5194L353.327 39.6026H354.533L350.027 51.5194H348.821Z" stroke="white"/>
<path d="M360.938 51.5194L356.432 39.6026H357.638L362.144 51.5194H360.938Z" stroke="white"/>
<path d="M363.847 51.3926V50.4418H377.556V51.3926H363.847Z" stroke="white"/>
<path d="M379.265 51.5194L383.771 39.6026H384.977L380.471 51.5194H379.265Z" stroke="white"/>
<path d="M386.68 51.3926V50.4418H400.389V51.3926H386.68Z" stroke="white"/>
<path d="M402.098 51.5194L406.604 39.6026H407.81L403.303 51.5194H402.098Z" stroke="white"/>
<path d="M39.0549 68V56.0833H40.1973V68H39.0549Z" stroke="white"/>
<path d="M44.1858 67.8732V66.9224H57.8945V67.8732H44.1858Z" stroke="white"/>
<path d="M59.6031 68L64.1092 56.0833H65.3151L60.809 68H59.6031Z" stroke="white"/>
<path d="M69.4989 68V56.0833H70.6413V68H69.4989Z" stroke="white"/>
<path d="M74.6347 67.8732V66.9224H80.7275V67.8732H74.6347Z" stroke="white"/>
<path d="M84.7209 68V56.0833H85.8633V68H84.7209Z" stroke="white"/>
</svg>
